<svg width="1440" height="505" viewBox="0 0 1440 505" fill="none" xmlns="http://www.w3.org/2000/svg">
<g clip-path="url(#clip0_271_1040)">
<path d="M0.00927734 56.186H769.071C769.071 56.186 798.678 76.7278 820.226 80.183C841.774 83.6383 864.927 88.5934 877.181 96.14C889.436 103.687 913.462 115.04 924.928 117.137C936.395 119.235 1065.02 147.134 1094.59 146.564C1124.16 145.994 1137.3 144.552 1151.36 149.592C1165.42 154.633 1183.06 163.081 1196.14 168.435C1209.22 173.788 1249.6 177.301 1263.38 179.256C1277.17 181.212 1283.71 179.256 1300.05 190.419C1316.4 201.582 1334.8 210.059 1352.1 208.996C1369.4 207.933 1387.04 202.693 1404.56 204.06C1422.09 205.427 1440.99 208.36 1440.99 208.36V504.962H0.00927734V56.186Z" fill="#23A094"/>
<path d="M1440.96 327.747H0V438.8H1440.96V327.747Z" fill="#FFC900"/>
<path d="M0.949219 327.491H1440.01M1440.01 438.553H0.949219" stroke="black" stroke-width="2" stroke-linecap="square" stroke-linejoin="round"/>
<path d="M769.071 56.1861L1440.97 56.0059V208.351C1440.97 208.351 1433.61 208.132 1406.19 204.81C1384.25 202.152 1346.21 214.473 1323.88 204.81C1310.45 199.01 1295.08 185.768 1286.73 183.575C1263.75 177.51 1217.86 180.557 1199.67 172.184C1181.48 163.812 1171.63 152.601 1133.1 149.573C1094.57 146.545 1046.14 151.766 1008 144.153C969.856 136.54 909.863 122.548 882.487 106.506C855.11 90.4635 871.418 88.565 850.772 86.2678C802.731 80.9045 769.071 56.1861 769.071 56.1861Z" fill="#90A8ED"/>
<path d="M1440.01 56.0059H768.891C768.891 56.0059 802.513 80.7961 850.498 86.1751C871.12 88.4789 854.831 90.3829 882.176 106.472C909.52 122.56 969.439 136.593 1007.54 144.229C1045.63 151.864 1094.01 146.628 1132.5 149.664C1170.98 152.701 1180.83 163.945 1198.99 172.341C1217.15 180.738 1263 177.682 1285.96 183.765C1294.29 185.965 1309.64 199.245 1323.05 205.062C1345.37 214.753 1383.36 202.396 1405.27 205.062C1432.66 208.394 1440.01 208.613 1440.01 208.613" stroke="black" stroke-width="2" stroke-linecap="square" stroke-linejoin="round"/>
<path d="M1101.61 233.392L1299.84 231.493L1304.93 267.204L1333.41 270.251V280.569C1333.41 280.569 1104.22 289.113 1105.21 280.569C1106.2 272.026 1101.61 233.392 1101.61 233.392Z" fill="#98282A" stroke="black" stroke-width="2" stroke-linecap="round" stroke-linejoin="round"/>
<path d="M768.891 56.0059H0" stroke="black" stroke-width="2" stroke-miterlimit="10"/>
<path d="M153.189 92.3617C152.315 89.8272 149.638 80.8758 145.766 77.2307C144.115 75.7006 142.133 74.5723 139.974 73.9334C137.816 73.2946 135.539 73.1626 133.321 73.5476C129.448 74.0887 123.079 75.1898 118.418 77.5154C116.069 78.6465 114.114 80.4559 112.804 82.7099C111.494 84.9638 110.891 87.5588 111.071 90.1594C111.232 94.7063 112.086 106.857 117.288 118.039C120.572 125.092 123.325 127.247 127.426 128.148C129.444 128.487 131.502 128.519 133.53 128.243H133.871C136.208 127.962 138.523 127.528 140.801 126.943C141.893 126.658 143.165 126.364 144.503 125.994C145.13 125.813 145.785 125.623 146.402 125.405C147.019 125.187 147.939 124.835 148.689 124.456L148.784 124.408C150.024 123.839 151.167 123.079 152.173 122.159C153.653 120.809 154.819 119.152 155.589 117.304C156.36 115.456 156.717 113.462 156.634 111.461C156.634 106.676 154.071 94.9341 153.189 92.3617Z" fill="#FF7051" stroke="black" stroke-width="2" stroke-linecap="round" stroke-linejoin="round"/>
<path d="M125.328 120.441C125.627 120.441 125.869 120.198 125.869 119.899C125.869 119.6 125.627 119.358 125.328 119.358C125.029 119.358 124.787 119.6 124.787 119.899C124.787 120.198 125.029 120.441 125.328 120.441Z" fill="#E2442F" stroke="black" stroke-width="2" stroke-linecap="round" stroke-linejoin="round"/>
<path d="M130.321 119.359C130.619 119.359 130.862 119.116 130.862 118.817C130.862 118.518 130.619 118.276 130.321 118.276C130.022 118.276 129.78 118.518 129.78 118.817C129.78 119.116 130.022 119.359 130.321 119.359Z" fill="#E2442F" stroke="black" stroke-width="2" stroke-linecap="round" stroke-linejoin="round"/>
<path d="M130.863 121.542C129.486 123.668 126.695 122.927 126.695 122.927" stroke="black" stroke-width="2" stroke-linecap="round" stroke-linejoin="round"/>
<path d="M148.67 135.837C148.67 135.837 149.715 138.6 151.1 142.292" stroke="#5000FF" stroke-width="2" stroke-linecap="round" stroke-linejoin="round"/>
<path d="M131.006 152.497C130.769 153.446 129.43 158.116 125.747 158.838C122.064 159.559 99.1682 163.736 99.1682 163.736H99.0543L96.2065 162.786L96.6907 160.632L97.0324 159.227L97.1083 158.914L97.6684 156.569L98.0671 154.917L98.2854 154.727L102.5 151.149L105.281 150.968L106.563 150.883H106.734L122.112 148.719C122.472 147.874 122.871 146.944 123.298 145.966L128.88 148.994C129.342 150.294 130.065 151.487 131.006 152.497Z" fill="#FF90E8" stroke="black" stroke-width="2" stroke-linecap="round" stroke-linejoin="round"/>
<path d="M129.459 143.621C128.69 145.615 128.329 147.494 128.832 148.947L123.25 145.918C124.114 143.944 125.083 141.77 126.098 139.672L130.332 141.685C129.99 142.321 129.705 142.966 129.459 143.621Z" fill="#F1F333" stroke="black" stroke-width="2" stroke-linecap="round" stroke-linejoin="round"/>
<path d="M193.532 269.748C193.532 269.748 188.254 274.295 182.957 278.737C178.695 282.316 174.481 283.683 172.63 283.559C170.779 283.436 167.969 281.49 169.108 278.282C170.247 275.073 176.256 269.017 177.338 267.783C178.42 266.549 178.98 265.685 178.287 264.546C177.594 263.407 174.651 259.135 174.651 259.135C174.651 259.135 173.436 257.294 171.661 254.579C172.644 254.293 173.688 254.293 174.67 254.579C174.749 254.612 174.823 254.657 174.889 254.712L175.715 255.661L182.018 252.215C182.084 252.386 182.151 252.519 182.188 252.624C182.72 253.734 193.532 269.748 193.532 269.748Z" fill="black" stroke="black" stroke-width="2" stroke-linecap="round" stroke-linejoin="round"/>
<path d="M182.823 251.2L175.884 254.997L174.983 253.952C174.91 253.888 174.827 253.837 174.736 253.8L182.055 249.377C182.377 250.127 182.643 250.753 182.823 251.2Z" fill="#FFC900" stroke="black" stroke-width="2" stroke-linecap="round" stroke-linejoin="round"/>
<path d="M164.817 151.889L156.084 155.487C155.875 154.917 155.647 154.31 155.4 153.693L152.714 146.554L161.381 142.672C162.52 145.7 163.763 149.07 164.817 151.889Z" fill="#F1F333" stroke="black" stroke-width="2" stroke-linecap="round" stroke-linejoin="round"/>
<path d="M168.025 165.131C167.807 166.413 166.127 174.102 166.127 174.102L162.691 190.334L162.15 190.106L155.505 187.334L153.246 186.385C153.246 186.385 154.29 184.021 155.495 180.689C155.866 179.683 156.255 178.563 156.625 177.405C157.603 174.481 158.361 171.489 158.894 168.454C159.427 165.749 159.095 162.946 157.944 160.442C157.679 159.787 156.995 157.926 156.046 155.506L164.779 151.908L166.677 157.101C168.329 161.515 168.225 163.84 168.025 165.131Z" fill="#FF90E8" stroke="black" stroke-width="2" stroke-linecap="round" stroke-linejoin="round"/>
<path d="M161.381 142.672L152.705 146.545L151.091 142.283L129.458 143.621C129.704 142.985 129.989 142.34 130.302 141.723L126.069 139.71C128.034 135.524 130.056 131.632 131.375 130.218C131.546 130.028 132.524 129.174 133.53 128.319H133.872L133.055 128.889C134.536 132.942 139.026 132.468 140.972 131.338C141.932 130.795 142.751 130.035 143.364 129.119C143.977 128.202 144.368 127.155 144.503 126.06C145.13 125.88 145.785 125.69 146.402 125.472C147.019 125.253 147.94 124.902 148.689 124.522C151.272 124.932 153.648 126.183 155.448 128.082C156.881 129.658 157.584 132.714 158.296 134.641C158.666 135.382 159.919 138.742 161.381 142.672Z" fill="#FF90E8" stroke="black" stroke-width="2" stroke-linecap="round" stroke-linejoin="round"/>
<path d="M132.534 137.66C131.756 138.932 130.968 140.299 130.303 141.666" stroke="black" stroke-width="2" stroke-linecap="round" stroke-linejoin="round"/>
<path d="M147.369 269.729L147.141 289.986C140.686 290.071 134.393 290.043 124.853 285.97C120.107 283.939 115.446 279.629 115.712 275.529C115.977 271.428 121.274 271.798 124.824 273.023C127.097 273.748 129.316 274.626 131.469 275.652C134.516 277.142 135.655 276.506 135.655 276.506L135.484 268.21C136.661 266.995 137.763 266.881 138.607 267.849C139.054 268.408 139.377 269.056 139.557 269.748L147.369 269.729Z" fill="black" stroke="black" stroke-width="2" stroke-linecap="round" stroke-linejoin="round"/>
<path d="M144.749 268.372V270.431H136.149C135.947 269.678 135.588 268.976 135.095 268.372H144.749Z" fill="#FFC900" stroke="black" stroke-width="2" stroke-linecap="round" stroke-linejoin="round"/>
<path d="M144.504 125.946C144.368 127.041 143.978 128.088 143.365 129.005C142.752 129.921 141.933 130.681 140.973 131.224C139.027 132.354 134.537 132.828 133.056 128.775L133.873 128.206C136.209 127.924 138.523 127.49 140.802 126.905C141.894 126.62 143.166 126.326 144.504 125.946Z" fill="#E2442F" stroke="black" stroke-width="2" stroke-linecap="round" stroke-linejoin="round"/>
<path d="M141.911 172.773V189.679L137.611 188.179L137.953 181.696L138.551 170.257L141.911 172.773Z" fill="#F1F333" stroke="black" stroke-width="2" stroke-linecap="round" stroke-linejoin="round"/>
<path d="M133.853 171.605L128.869 173.029C128.148 173.228 127.508 173.648 127.039 174.231C126.571 174.814 126.298 175.528 126.259 176.276L125.898 183.556L128.205 183.205L133.539 182.379L137.944 181.705L138.542 170.257L133.853 171.605ZM131.793 181.098C131.701 181.1 131.61 181.074 131.532 181.024C131.454 180.974 131.393 180.902 131.356 180.818C131.32 180.732 131.309 180.638 131.326 180.548C131.343 180.457 131.387 180.373 131.451 180.307C131.516 180.242 131.598 180.196 131.689 180.177C131.779 180.159 131.873 180.167 131.959 180.202C132.044 180.237 132.117 180.297 132.17 180.373C132.221 180.45 132.248 180.541 132.248 180.633C132.255 180.697 132.248 180.763 132.228 180.823C132.208 180.885 132.173 180.942 132.13 180.99C132.086 181.037 132.032 181.075 131.972 181.1C131.912 181.125 131.848 181.138 131.783 181.136L131.793 181.098Z" fill="#F1F333" stroke="black" stroke-width="2" stroke-linecap="round" stroke-linejoin="round"/>
<path d="M132.239 180.642C132.239 180.732 132.212 180.821 132.162 180.896C132.112 180.971 132.041 181.028 131.957 181.063C131.875 181.098 131.783 181.106 131.695 181.089C131.606 181.071 131.525 181.028 131.461 180.964C131.398 180.9 131.354 180.82 131.337 180.731C131.319 180.642 131.329 180.551 131.363 180.467C131.397 180.385 131.456 180.314 131.531 180.263C131.606 180.213 131.694 180.187 131.784 180.187C131.904 180.187 132.02 180.235 132.105 180.32C132.191 180.406 132.239 180.522 132.239 180.642Z" stroke="#5000FF" stroke-width="2" stroke-linecap="round" stroke-linejoin="round"/>
<path d="M132.239 180.642C132.239 180.732 132.212 180.821 132.162 180.896C132.112 180.971 132.041 181.028 131.957 181.063C131.875 181.098 131.783 181.106 131.695 181.089C131.606 181.071 131.525 181.028 131.461 180.964C131.398 180.9 131.354 180.82 131.337 180.731C131.319 180.642 131.329 180.551 131.363 180.467C131.397 180.385 131.456 180.314 131.531 180.263C131.606 180.213 131.694 180.187 131.784 180.187C131.904 180.187 132.02 180.235 132.105 180.32C132.191 180.406 132.239 180.522 132.239 180.642Z" fill="black" stroke="black" stroke-width="2" stroke-linecap="round" stroke-linejoin="round"/>
<path d="M91.8955 136.113H104.284L107.786 159.312H99.3L93.8225 150.181L91.8955 136.113Z" fill="black" stroke="black" stroke-width="2" stroke-linecap="round" stroke-linejoin="round"/>
<path d="M102.896 136.113L106.551 159.312" stroke="white" stroke-width="2" stroke-miterlimit="10"/>
<path d="M107.786 136.379L112.504 131.433" stroke="black" stroke-width="2" stroke-linecap="round" stroke-linejoin="round"/>
<path d="M104.482 132.373L107.785 125.775" stroke="black" stroke-width="2" stroke-linecap="round" stroke-linejoin="round"/>
<path d="M100.134 131.433L100.532 125.025" stroke="black" stroke-width="2" stroke-linecap="round" stroke-linejoin="round"/>
<path d="M94.4675 132.05L92.7778 125.5" stroke="black" stroke-width="2" stroke-linecap="round" stroke-linejoin="round"/>
<path d="M89.3617 133.711L84.8149 128.547" stroke="black" stroke-width="2" stroke-linecap="round" stroke-linejoin="round"/>
<path d="M147.855 178.497L147.722 181.648L141.913 182.341V179.256L147.855 178.497Z" fill="#FFC900" stroke="black" stroke-width="2" stroke-linecap="round" stroke-linejoin="round"/>
<path d="M141.913 180.727L144.476 180.433" stroke="black" stroke-width="2" stroke-linecap="round" stroke-linejoin="round"/>
<path d="M152.21 179.446C152.21 179.487 152.202 179.527 152.186 179.565C152.17 179.602 152.147 179.636 152.118 179.664C152.088 179.693 152.054 179.715 152.016 179.73C151.978 179.744 151.938 179.751 151.897 179.75C151.835 179.75 151.774 179.731 151.723 179.697C151.672 179.662 151.631 179.612 151.608 179.554C151.584 179.496 151.579 179.433 151.592 179.372C151.604 179.311 151.636 179.255 151.68 179.212C151.725 179.168 151.781 179.139 151.842 179.128C151.904 179.118 151.967 179.125 152.024 179.15C152.081 179.176 152.129 179.216 152.162 179.27C152.195 179.323 152.212 179.383 152.21 179.446Z" stroke="#5000FF" stroke-width="2" stroke-miterlimit="10" stroke-linecap="round"/>
<path d="M154.449 179.247C154.449 179.327 154.418 179.404 154.361 179.461C154.304 179.518 154.226 179.55 154.146 179.55C154.065 179.55 153.989 179.518 153.932 179.461C153.875 179.404 153.843 179.327 153.843 179.247C153.843 179.166 153.875 179.089 153.932 179.032C153.989 178.975 154.065 178.943 154.146 178.943C154.226 178.943 154.304 178.975 154.361 179.032C154.418 179.089 154.449 179.166 154.449 179.247Z" stroke="#5000FF" stroke-width="2" stroke-miterlimit="10" stroke-linecap="round"/>
<path d="M162.169 190.135L159.663 194.625C157.278 193.456 155.093 191.918 153.189 190.068L155.515 187.363L162.169 190.135Z" fill="#98282A" stroke="black" stroke-width="2" stroke-linecap="round" stroke-linejoin="round"/>
<path d="M720.534 87.2076C717.535 89.8465 712.067 91.4792 712.798 92.7037C715.945 97.0883 717.665 102.335 717.725 107.73C717.701 112.395 716.565 116.986 714.412 121.124C711.384 126.506 704.976 131.746 696.926 134.414C694.013 135.371 690.956 135.814 687.89 135.724H686.94C683.552 135.442 680.206 134.779 676.964 133.749C675.772 133.377 674.599 132.943 673.452 132.449L673.148 132.325C672.369 131.984 671.62 131.623 670.889 131.243C657.817 124.38 652.122 110.768 654.989 98.5606C658.273 84.5876 668.962 82.1576 670.129 79.8034C670.737 78.1233 664.804 73.3865 665.383 63.2865C666.475 45.1654 682.033 35.8722 697.657 37.0208C719.414 38.6155 727.844 55.5881 729.049 63.2106C730.995 75.2755 723.524 84.5686 720.534 87.2076Z" fill="#FF90E8" stroke="black" stroke-width="2" stroke-linecap="round" stroke-linejoin="round"/>
<path d="M695.732 120.507C698.58 123.136 703.222 122.529 703.222 122.529" stroke="black" stroke-width="2" stroke-linecap="round" stroke-linejoin="round"/>
<path d="M703.212 114.774C703.621 114.774 703.952 114.443 703.952 114.033C703.952 113.624 703.621 113.293 703.212 113.293C702.803 113.293 702.471 113.624 702.471 114.033C702.471 114.443 702.803 114.774 703.212 114.774Z" fill="black" stroke="black" stroke-width="2" stroke-linecap="round" stroke-linejoin="round"/>
<path d="M755.771 110.246V116.644L745.709 136.587L741.514 139.122L723.412 139.274L722.187 135.932L734.413 110.246H755.771Z" fill="black" stroke="black" stroke-width="2" stroke-linecap="round" stroke-linejoin="round"/>
<path d="M724.076 137.821L739.938 137.441" stroke="white" stroke-width="2" stroke-linecap="round" stroke-linejoin="round"/>
<path d="M735.837 114.773L727.873 131.252L741.371 131.404L748.88 114.773H735.837Z" fill="white" stroke="white" stroke-width="2" stroke-miterlimit="10"/>
<path d="M754.765 114.223L748.272 128.244" stroke="white" stroke-width="2" stroke-linecap="round" stroke-linejoin="round"/>
<path d="M748.53 131.015C748.285 133.512 747.624 135.95 746.574 138.229C744.343 143.697 742.436 146.051 742.084 149.345C741.695 153.009 741.477 165.824 740.603 174.699C739.977 171.206 730.608 165.672 723.65 163.138L729.345 150.683C729.345 150.683 726.165 144.248 729.972 140.175C732.232 140.287 734.492 139.942 736.617 139.16C737.788 138.76 738.889 138.181 739.882 137.441C740.652 136.938 741.275 136.24 741.688 135.419C742.101 134.597 742.29 133.68 742.236 132.762C742.177 132.011 741.991 131.276 741.686 130.588C740.888 128.585 739.578 126.288 740.243 123.943C741.192 121.988 743.29 122.149 744.989 123.298C745.749 123.82 746.396 124.492 746.887 125.272C748.047 126.956 748.624 128.973 748.53 131.015Z" fill="#FF90E8" stroke="black" stroke-width="2" stroke-linecap="round" stroke-linejoin="round"/>
<path d="M740.604 174.699C740.422 177.123 740.035 179.527 739.446 181.885C737.547 188.141 734.006 196.599 727.229 196.124C720.451 195.649 708.348 184.733 700.403 176.892C696.786 173.342 694.062 170.428 693.151 169.45C690.246 166.327 681 156.835 680.943 152.364C680.886 147.893 682.035 139.805 686.183 137.024C686.541 136.854 686.946 136.811 687.332 136.9C689.297 137.176 692.714 139.293 695.448 142.501C698.856 146.478 720.603 169.735 720.603 169.735L723.65 163.09C730.608 165.672 739.977 171.206 740.604 174.699Z" fill="#23A094" stroke="black" stroke-width="2" stroke-linecap="round" stroke-linejoin="round"/>
<path d="M700.402 176.845L699.358 231.616C686.486 229.376 676.272 233.363 670.206 232.774C664.511 232.233 659.888 229.443 653.955 230.031C653.547 230.031 653.129 230.126 652.712 230.202C648.345 230.98 644.168 232.784 640.229 231.389C640.656 229.234 649.816 185.521 651.848 177.063C652.522 174.215 653.348 171.301 654.297 168.302C658.284 155.62 664.501 142.112 671.526 134.271C673.671 138.951 680.477 139.425 687.065 136.103L687.331 136.9C686.945 136.811 686.54 136.854 686.182 137.024C682.034 139.805 680.885 147.94 680.942 152.364C680.999 156.787 690.245 166.28 693.15 169.45C694.061 170.399 696.757 173.314 700.402 176.845Z" fill="white" stroke="black" stroke-width="2" stroke-linecap="round" stroke-linejoin="round"/>
<path d="M673.415 132.363C672.788 132.961 672.162 133.607 671.516 134.262C664.492 142.103 658.274 155.61 654.288 168.292C643.03 178.82 634.932 192.973 630.006 203.794C628.563 202.257 622.801 197.966 616.973 198.099C616.973 198.023 617.039 197.947 617.077 197.861C630.632 167.106 645.403 152.298 657.145 142.625C661.437 138.963 666.128 135.795 671.127 133.18C671.887 132.781 672.551 132.487 673.102 132.23L673.415 132.363Z" fill="#23A094" stroke="black" stroke-width="2" stroke-linecap="round" stroke-linejoin="round"/>
<path d="M630.015 203.823C628.117 207.895 626.74 211.474 625.781 214.189C625.307 215.527 624.832 217.036 624.395 218.641C623.313 218.206 622.207 217.836 621.083 217.53C619.868 217.188 618.567 216.865 617.286 216.581C616.004 216.296 614.704 216.087 613.546 215.926C612.558 215.781 611.563 215.702 610.565 215.688L611.011 214.084C612.705 208.688 614.688 203.386 616.953 198.203V198.137C622.81 197.994 628.572 202.285 630.015 203.823Z" fill="#FF90E8" stroke="black" stroke-width="2" stroke-linecap="round" stroke-linejoin="round"/>
<path d="M626.874 235.205C626.874 238.641 620.134 232.993 620.134 232.993C620.376 234.665 620.813 236.302 621.435 237.872C622.431 240.416 619.65 239.704 617.154 235.974C617.154 236.505 617.154 237.065 617.068 237.644C616.783 241.584 613.024 240.568 614.287 229.357C614.287 229.357 612.825 239.59 610.936 239.078C609.047 238.565 610.319 231.484 610.613 230.107C610.129 231.854 607.129 242.514 606.978 236.932C606.972 231.81 607.61 226.708 608.876 221.744L609.284 220.264C610.448 220.137 611.622 220.137 612.787 220.264C613.988 220.356 615.183 220.517 616.366 220.748C617.647 220.998 618.914 221.314 620.163 221.697C621.232 222.006 622.28 222.38 623.305 222.817C622.355 226.614 621.691 229.832 621.691 229.832C621.691 229.832 626.874 232.604 626.874 235.205Z" fill="#FF90E8" stroke="black" stroke-width="2" stroke-linecap="round" stroke-linejoin="round"/>
<path d="M616.963 229.946C617.167 231.952 617.23 233.969 617.152 235.983" stroke="black" stroke-width="2" stroke-linecap="round" stroke-linejoin="round"/>
<path d="M612.388 229.319C615.235 228.873 619.127 230.8 619.127 230.8" stroke="black" stroke-width="2" stroke-linecap="round" stroke-linejoin="round"/>
<path d="M616.069 224.516C616.03 225.21 615.838 225.888 615.51 226.5" stroke="black" stroke-width="2" stroke-linecap="round" stroke-linejoin="round"/>
<path d="M610.565 215.764H610.423" stroke="#5000FF" stroke-width="2" stroke-linecap="round" stroke-linejoin="round"/>
<path d="M613.546 215.954L612.805 220.264C611.641 220.137 610.467 220.137 609.303 220.264L610.565 215.764C611.562 215.762 612.558 215.826 613.546 215.954Z" fill="#FF90E8" stroke="black" stroke-width="2" stroke-linecap="round" stroke-linejoin="round"/>
<path d="M617.285 216.609L616.383 220.748C615.201 220.518 614.006 220.356 612.804 220.264L613.545 215.954C614.703 216.115 615.984 216.334 617.285 216.609Z" fill="#FF90E8" stroke="black" stroke-width="2" stroke-linecap="round" stroke-linejoin="round"/>
<path d="M624.395 218.612C623.997 219.997 623.627 221.412 623.294 222.75C622.27 222.314 621.221 221.94 620.152 221.63L621.102 217.501C622.22 217.807 623.32 218.178 624.395 218.612Z" fill="#FF90E8" stroke="black" stroke-width="2" stroke-linecap="round" stroke-linejoin="round"/>
<path d="M621.083 217.53L620.133 221.659C618.885 221.276 617.618 220.96 616.336 220.71L617.238 216.571C618.567 216.865 619.868 217.188 621.083 217.53Z" fill="#FF90E8" stroke="black" stroke-width="2" stroke-linecap="round" stroke-linejoin="round"/>
<path d="M737.006 94.6875V102.452" stroke="black" stroke-width="2" stroke-linecap="round" stroke-linejoin="round"/>
<path d="M747.683 94.6875L746.772 103.278" stroke="black" stroke-width="2" stroke-linecap="round" stroke-linejoin="round"/>
<path d="M759.54 96.1396L754.927 104.018" stroke="black" stroke-width="2" stroke-linecap="round" stroke-linejoin="round"/>
<path d="M762.806 106.867L771.492 102.006" stroke="black" stroke-width="2" stroke-linecap="round" stroke-linejoin="round"/>
<path d="M764.808 114.223L775.782 111.015" stroke="black" stroke-width="2" stroke-linecap="round" stroke-linejoin="round"/>
<path d="M1114.34 280.076L1116.29 307.139H1106.47L1100.11 233.392H1110.98L1113.71 271.4H1150.06L1151.34 280.076H1114.34Z" fill="#98282A" stroke="black" stroke-width="2" stroke-miterlimit="10" stroke-linecap="round"/>
<path d="M1335.4 271.399V280.076H1151.34L1150.06 271.399H1335.4Z" fill="#98282A" stroke="black" stroke-width="2" stroke-miterlimit="10" stroke-linecap="round"/>
<path d="M1307.4 307.139H1297.57L1294.22 280.076H1304.43L1307.4 307.139Z" fill="#98282A" stroke="black" stroke-width="2" stroke-miterlimit="10" stroke-linecap="round"/>
<path d="M1293.14 271.4H1113.72L1110.98 233.392H1288.43L1293.14 271.4Z" fill="#98282A" stroke="black" stroke-width="2" stroke-miterlimit="10" stroke-linecap="round"/>
<path d="M1187.01 221.65C1186.09 223.077 1184.9 224.309 1183.5 225.27C1182.11 226.232 1180.53 226.905 1178.87 227.25C1178.59 227.317 1178.28 227.383 1177.98 227.431C1177.68 227.478 1177.18 227.554 1176.75 227.601C1174.76 227.788 1172.76 227.788 1170.77 227.601C1169.48 228.459 1167.96 228.899 1166.41 228.864C1165.71 228.833 1165.03 228.685 1164.4 228.427C1163.25 227.918 1162.24 227.135 1161.46 226.149C1161.12 226.149 1160.78 226.149 1160.46 226.149C1150.64 225.58 1147.84 216.078 1151.63 209.67C1147.67 204.506 1148.88 199.39 1155.01 195.897C1154.06 188.54 1160.01 184.458 1165 184.183C1169.69 183.936 1171.19 186.081 1172.95 186.081C1173.6 186.081 1175.17 184.439 1177.81 185.199C1180.45 185.958 1180.87 186.822 1181.53 188.92C1181.95 190.249 1184.45 189.48 1186.69 194.368C1188.93 199.257 1185.92 204.525 1186.01 204.592C1187.55 206.358 1188.68 208.437 1189.33 210.686C1189.76 212.573 1189.78 214.53 1189.37 216.423C1188.97 218.316 1188.16 220.1 1187.01 221.65Z" fill="#F1F333" stroke="black" stroke-width="2" stroke-linecap="round" stroke-linejoin="round"/>
<path d="M1169.3 219.248C1173.43 223.045 1177.57 219.362 1177.57 219.362" stroke="black" stroke-width="2" stroke-linecap="round" stroke-linejoin="round"/>
<path d="M1169.29 215.603C1169.61 215.603 1169.86 215.348 1169.86 215.033C1169.86 214.719 1169.61 214.464 1169.29 214.464C1168.98 214.464 1168.72 214.719 1168.72 215.033C1168.72 215.348 1168.98 215.603 1169.29 215.603Z" fill="black" stroke="black" stroke-width="2" stroke-linecap="round" stroke-linejoin="round"/>
<path d="M1177.46 215.46C1177.77 215.46 1178.03 215.205 1178.03 214.891C1178.03 214.577 1177.77 214.321 1177.46 214.321C1177.14 214.321 1176.89 214.577 1176.89 214.891C1176.89 215.205 1177.14 215.46 1177.46 215.46Z" fill="black" stroke="black" stroke-width="2" stroke-linecap="round" stroke-linejoin="round"/>
<path d="M687.066 136.122C680.478 139.445 673.672 138.97 671.527 134.29C672.134 133.607 672.761 132.961 673.425 132.392C674.572 132.886 675.744 133.32 676.938 133.692C680.178 134.722 683.524 135.385 686.914 135.667L687.066 136.122Z" fill="#FF90E8" stroke="black" stroke-width="2" stroke-linecap="round" stroke-linejoin="round"/>
<path d="M667.331 372.456H654.184C654.385 369.53 655.025 366.65 656.083 363.913C665.043 364.862 666.895 369.808 667.331 372.456Z" fill="#E2442F" stroke="black" stroke-width="2" stroke-linecap="round" stroke-linejoin="round"/>
<path d="M675.399 365.992C674.772 366.742 673.586 366.941 671.82 367.492C669.504 368.223 670.178 370.216 670.254 372.456H667.33C666.865 369.808 665.014 364.862 656.034 363.913C656.335 363.171 656.727 362.469 657.202 361.825H675.769C675.769 362.024 675.817 362.204 675.845 362.385C676.092 364.34 675.949 365.365 675.399 365.992Z" fill="#E2442F" stroke="black" stroke-width="2" stroke-linecap="round" stroke-linejoin="round"/>
<path d="M689.723 372.457H670.254C670.178 370.216 669.503 368.223 671.819 367.492C673.585 366.941 674.771 366.742 675.398 365.992C678.759 367.641 682.402 368.64 686.134 368.935C687.482 368.982 688.46 369.011 689.182 369.02L689.723 372.457Z" fill="#E2442F" stroke="black" stroke-width="2" stroke-linecap="round" stroke-linejoin="round"/>
<path d="M689.162 369.02C688.441 369.02 687.463 369.02 686.115 368.935C682.383 368.639 678.74 367.641 675.379 365.992C675.929 365.365 676.072 364.34 675.854 362.385C679.907 365.233 688.536 365.033 688.536 365.033L689.162 369.02Z" fill="#E2442F" stroke="black" stroke-width="2" stroke-linecap="round" stroke-linejoin="round"/>
<path d="M690.597 378.086H653.975C653.943 376.219 654.012 374.353 654.184 372.495H689.724L690.597 378.086Z" fill="white" stroke="black" stroke-width="2" stroke-linecap="round" stroke-linejoin="round"/>
<path d="M621.5 375.247L630.841 387.654H799.589L806.86 375.247H621.5Z" fill="black" stroke="black" stroke-width="2" stroke-linecap="round" stroke-linejoin="round"/>
<path d="M718.039 341.511C710.489 341.511 703.11 343.749 696.832 347.944C690.556 352.138 685.664 358.099 682.775 365.073C679.886 372.048 679.13 379.722 680.602 387.126C682.076 394.53 685.711 401.331 691.049 406.67C696.386 412.008 703.188 415.643 710.592 417.116C717.996 418.589 725.671 417.832 732.645 414.944C739.62 412.055 745.581 407.163 749.775 400.885C753.97 394.609 756.208 387.229 756.208 379.68C756.208 369.557 752.186 359.848 745.029 352.69C737.87 345.532 728.162 341.511 718.039 341.511ZM720.013 399.225C716.145 399.225 712.364 398.077 709.148 395.928C705.932 393.779 703.426 390.725 701.946 387.152C700.466 383.578 700.08 379.646 700.835 375.852C701.59 372.059 703.453 368.575 706.189 365.84C708.925 363.105 712.41 361.244 716.204 360.49C719.998 359.737 723.93 360.126 727.503 361.607C731.076 363.089 734.129 365.596 736.277 368.813C738.424 372.03 739.57 375.812 739.568 379.68C739.565 384.865 737.504 389.836 733.837 393.501C730.17 397.166 725.198 399.225 720.013 399.225Z" fill="black" stroke="black" stroke-width="2" stroke-linecap="round" stroke-linejoin="round"/>
<path d="M765.104 359.718H737.908L736.142 289.805L680.801 252.832H678.504V361.825H653.092L653.985 230.05C659.917 229.462 664.569 232.253 670.236 232.794C676.301 233.382 686.515 229.395 699.387 231.636V236.106C699.387 236.106 745.416 267.878 753.115 274.19C760.357 280.133 761.307 285.42 761.734 289.758C762.161 294.096 765.104 359.718 765.104 359.718Z" fill="black" stroke="black" stroke-width="2" stroke-linecap="round" stroke-linejoin="round"/>
<path d="M93.3677 147.684C93.4843 147.563 93.5604 147.409 93.586 147.243C93.6115 147.076 93.585 146.906 93.5102 146.756C93.4354 146.605 93.316 146.48 93.1681 146.401C93.0203 146.321 92.8513 146.288 92.6843 146.308C90.7858 146.564 89.1341 148.016 86.9888 150.617C84.3594 153.854 84.2265 155.364 84.4638 157.661C84.6107 159.349 85.2901 160.948 86.4041 162.226C87.5182 163.503 89.0093 164.395 90.6624 164.771C95.8644 166.062 97.6775 164.97 100.44 162.483C101.892 161.309 103.045 159.806 103.8 158.097C104.436 156.341 100.876 156.74 94.8296 160.366C97.1459 158.638 102.661 155.563 102.765 153.56C102.87 151.557 99.1014 154.092 96.9276 155.458C94.7536 156.825 92.8836 157.813 92.7317 157.461C92.5799 157.11 100.041 153.085 100.155 150.522C100.221 148.909 92.1907 154.68 91.8299 154.224C91.5831 153.911 100.155 149.023 98.9685 146.526C98.1901 144.893 89.7796 152.221 89.0581 151.576C88.5456 151.092 91.811 149.241 93.3677 147.684Z" fill="#FF7051" stroke="black" stroke-width="2" stroke-linecap="round" stroke-linejoin="round"/>
<path d="M137.952 181.696L137.61 188.179L133.415 188.967L128.213 189.935V183.196L133.548 182.379L137.952 181.696Z" fill="#F1F333" stroke="black" stroke-width="2" stroke-linecap="round" stroke-linejoin="round"/>
<path d="M129.068 190.438L129.173 190.466L133.074 190.201" stroke="#5000FF" stroke-width="2" stroke-linecap="round" stroke-linejoin="round"/>
<path d="M149.991 178.24L149.905 181.401L155.553 180.67L156.683 177.386L149.991 178.24ZM151.946 179.749C151.884 179.749 151.823 179.73 151.771 179.696C151.719 179.661 151.679 179.612 151.656 179.554C151.633 179.496 151.627 179.432 151.64 179.372C151.653 179.311 151.683 179.255 151.728 179.211C151.773 179.167 151.829 179.139 151.891 179.128C151.953 179.117 152.015 179.125 152.072 179.149C152.129 179.175 152.178 179.216 152.211 179.269C152.244 179.322 152.261 179.383 152.259 179.446C152.26 179.492 152.251 179.538 152.232 179.579C152.213 179.621 152.184 179.658 152.148 179.688C152.112 179.717 152.071 179.738 152.026 179.748C151.981 179.759 151.934 179.76 151.889 179.749H151.946ZM154.196 179.55C154.115 179.55 154.038 179.518 153.981 179.461C153.924 179.404 153.892 179.327 153.892 179.246C153.892 179.166 153.924 179.089 153.981 179.032C154.038 178.975 154.115 178.943 154.196 178.943C154.277 178.943 154.353 178.975 154.41 179.032C154.467 179.089 154.5 179.166 154.5 179.246C154.5 179.327 154.467 179.404 154.41 179.461C154.353 179.518 154.277 179.55 154.196 179.55Z" fill="#FFC900" stroke="black" stroke-width="2" stroke-linecap="round" stroke-linejoin="round"/>
<path d="M158.904 168.435C158.371 171.47 157.612 174.462 156.635 177.386L149.943 178.24L147.864 178.506L141.922 179.266V172.782L138.6 170.257L133.854 171.605C133.855 171.583 133.855 171.561 133.854 171.539C134.632 167.106 135.04 161.572 133.854 156.882L155.401 153.693C155.648 154.31 155.876 154.917 156.085 155.487C157.034 157.908 157.718 159.768 157.983 160.423C159.123 162.931 159.446 165.734 158.904 168.435Z" fill="#FF90E8" stroke="black" stroke-width="2" stroke-linecap="round" stroke-linejoin="round"/>
<path d="M141.911 189.679L133.396 190.182L133.073 190.201L129.067 190.438L128.213 190.485V189.935L133.415 188.967L137.61 188.179L141.911 189.679Z" fill="black" stroke="black" stroke-width="2" stroke-linecap="round" stroke-linejoin="round"/>
<path d="M155.4 153.693L133.852 156.911C133.358 155.012 132.172 153.835 131.004 152.525C130.032 151.502 129.285 150.286 128.811 148.956C128.308 147.504 128.669 145.624 129.438 143.631L151.081 142.321L152.694 146.583L155.4 153.693Z" fill="#F1F333" stroke="black" stroke-width="2" stroke-linecap="round" stroke-linejoin="round"/>
<path d="M611.012 214.112L610.556 215.717L609.303 220.302L608.895 221.782V221.792L606.266 221.308L607.746 213.353L611.012 214.112Z" fill="black" stroke="black" stroke-width="2" stroke-linecap="round" stroke-linejoin="round"/>
<path d="M748.776 372.998H734.138C734.472 370.526 735.18 368.119 736.236 365.859C741.808 365.347 749.307 366.97 748.776 372.998Z" fill="#E2442F" stroke="black" stroke-width="2" stroke-linecap="round" stroke-linejoin="round"/>
<path d="M773.038 367.824C772.422 369.499 771.981 371.233 771.719 372.998H752.174C752.275 371.769 752.708 370.591 753.425 369.589C754.142 368.587 755.117 367.796 756.246 367.302C757.27 366.931 758.184 366.308 758.904 365.489C760.907 366.068 767.742 367.948 773.038 367.824Z" fill="#E2442F" stroke="black" stroke-width="2" stroke-linecap="round" stroke-linejoin="round"/>
<path d="M774.424 364.559C773.849 365.599 773.36 366.685 772.962 367.805C767.666 367.929 760.831 366.049 758.828 365.461C759.606 364.379 759.512 362.841 758.164 360.107C758.253 359.978 758.329 359.842 758.391 359.699H758.515C760.28 363.23 768.396 363.249 774.424 364.559Z" fill="#E2442F" stroke="black" stroke-width="2" stroke-linecap="round" stroke-linejoin="round"/>
<path d="M781.317 372.997H771.748C772.01 371.233 772.452 369.499 773.068 367.824C773.465 366.704 773.954 365.618 774.53 364.578C777.823 365.29 780.5 366.4 781.174 368.678C781.606 370.079 781.656 371.571 781.317 372.997Z" fill="#E2442F" stroke="black" stroke-width="2" stroke-linecap="round" stroke-linejoin="round"/>
<path d="M758.458 359.718C758.395 359.861 758.319 359.997 758.23 360.126C758.154 360.264 758.065 360.394 757.964 360.515C757.925 360.579 757.882 360.639 757.831 360.695C757.757 360.794 757.675 360.886 757.585 360.971C757.548 361.028 757.499 361.076 757.442 361.113C757.347 361.218 757.243 361.313 757.129 361.398C757.085 361.447 757.034 361.488 756.977 361.521L756.597 361.787C756.474 361.875 756.344 361.954 756.208 362.024C756.063 362.112 755.91 362.188 755.753 362.252C755.624 362.326 755.487 362.386 755.344 362.433C755.175 362.509 755 362.575 754.822 362.632C754.633 362.698 754.443 362.765 754.253 362.812L754.053 362.869L753.541 362.993C753.323 363.05 753.104 363.088 752.886 363.126C752.668 363.164 752.44 363.201 752.212 363.23C751.984 363.258 751.766 363.296 751.538 363.315C749.583 363.484 747.618 363.484 745.662 363.315C743.111 363.153 740.574 362.817 738.068 362.309C738.532 361.522 738.82 360.645 738.913 359.737L758.458 359.718Z" fill="white" stroke="black" stroke-width="2" stroke-linecap="round" stroke-linejoin="round"/>
<path d="M781.316 372.998C780.957 374.487 780.125 375.82 778.943 376.795H733.825C733.853 375.524 733.958 374.255 734.138 372.998H781.316Z" fill="white" stroke="black" stroke-width="2" stroke-linecap="round" stroke-linejoin="round"/>
<path d="M758.904 365.479C758.186 366.298 757.271 366.921 756.246 367.292C755.118 367.786 754.143 368.577 753.426 369.579C752.709 370.582 752.276 371.76 752.174 372.988H748.776C749.307 366.96 741.808 365.337 736.246 365.85C736.929 364.416 737.613 363.277 738.144 362.28C740.65 362.788 743.187 363.124 745.738 363.287C747.694 363.456 749.659 363.456 751.614 363.287C751.842 363.287 752.06 363.239 752.288 363.201C752.516 363.163 752.734 363.144 752.962 363.097C753.19 363.049 753.399 363.021 753.617 362.964L754.129 362.84L754.329 362.784C754.519 362.736 754.708 362.67 754.898 362.603C755.077 362.546 755.251 362.48 755.42 362.404C755.563 362.357 755.7 362.298 755.829 362.223C755.986 362.159 756.139 362.083 756.284 361.996C756.42 361.925 756.55 361.847 756.673 361.758C756.808 361.681 756.935 361.593 757.053 361.493C757.11 361.459 757.161 361.419 757.205 361.369C757.321 361.287 757.426 361.192 757.518 361.084C757.575 361.047 757.624 360.999 757.661 360.942C757.751 360.858 757.833 360.765 757.907 360.667C757.958 360.611 758.001 360.55 758.04 360.486C758.148 360.37 758.237 360.239 758.306 360.097C759.588 362.897 759.683 364.397 758.904 365.479Z" fill="#E2442F" stroke="black" stroke-width="2" stroke-linecap="round" stroke-linejoin="round"/>
<path d="M1169.92 232.101C1168.57 233.244 1167.42 234.601 1166.52 236.116C1165.26 234.939 1163.86 230.363 1164.4 228.437C1165.04 228.694 1165.71 228.842 1166.41 228.873C1166.68 230.003 1168.22 230.449 1169.92 232.101Z" fill="#E2442F" stroke="black" stroke-width="2" stroke-linecap="round" stroke-linejoin="round"/>
<path d="M1176.76 227.62C1176.64 228.702 1175.27 229.519 1173.98 231.417C1173.18 232.637 1172.6 233.99 1172.26 235.413C1171.68 234.196 1170.88 233.085 1169.92 232.129C1168.22 230.477 1166.69 230.003 1166.42 228.892C1167.96 228.933 1169.49 228.498 1170.78 227.649C1172.78 227.824 1174.77 227.815 1176.76 227.62Z" fill="#F1F333" stroke="black" stroke-width="2" stroke-linecap="round" stroke-linejoin="round"/>
<path d="M1178.13 234.616C1176.94 233.32 1175.53 232.223 1173.98 231.37C1175.26 229.471 1176.63 228.684 1176.75 227.573C1177.18 227.525 1177.59 227.478 1177.98 227.402C1178.37 227.326 1178.59 227.288 1178.87 227.222C1178.99 227.634 1179.06 228.057 1179.09 228.484C1179.1 228.538 1179.1 228.591 1179.09 228.646C1179.27 230.81 1178.85 233.591 1178.13 234.616Z" fill="#E2442F" stroke="black" stroke-width="2" stroke-linecap="round" stroke-linejoin="round"/>
<path d="M1179.92 249.159H1170.79C1169.31 247.953 1167.65 247.839 1165.25 249.5C1161.95 251.713 1158.28 253.345 1154.43 254.323C1153.04 254.673 1151.6 254.773 1150.18 254.617C1146.63 254.123 1142.84 252.101 1145.87 245.229C1146.33 244.175 1146.88 243.065 1147.49 241.935C1149.89 241.251 1154.48 241.935 1156.76 244.318C1156.63 244.688 1156.52 245.048 1156.4 245.409C1159.4 243.606 1163.53 241.906 1166.43 240.549C1170.35 238.717 1173.13 238.195 1175.78 241.166C1176.14 241.576 1176.47 242.011 1176.77 242.466C1177.52 243.59 1178.19 244.775 1178.75 246.007C1179.21 247.029 1179.6 248.082 1179.92 249.159Z" fill="#F1F333" stroke="black" stroke-width="2" stroke-linecap="round" stroke-linejoin="round"/>
<path d="M1156.38 245.409C1155.04 246.119 1153.86 247.109 1152.93 248.314" stroke="black" stroke-width="2" stroke-linecap="round" stroke-linejoin="round"/>
<path d="M1174.23 245.02C1175.47 245.609 1176.13 247.574 1176.46 249.159" stroke="black" stroke-width="2" stroke-linecap="round" stroke-linejoin="round"/>
<path d="M1172.43 246.311C1173.22 247.081 1173.78 248.073 1174.02 249.159" stroke="black" stroke-width="2" stroke-linecap="round" stroke-linejoin="round"/>
<path d="M1158.42 240.872C1157.73 241.956 1157.17 243.112 1156.74 244.318C1154.46 241.935 1149.87 241.251 1147.47 241.935C1148.17 240.625 1148.97 239.287 1149.83 237.958C1153.59 237.815 1157.57 239.923 1158.42 240.872Z" fill="#E2442F" stroke="black" stroke-width="2" stroke-linecap="round" stroke-linejoin="round"/>
<path d="M1191.1 245.191L1189.13 249.121H1181.82C1180.86 248.026 1180.26 246.665 1180.1 245.219C1181.04 244.526 1181.05 243.824 1180.44 243.197C1180.79 242.435 1181.31 241.768 1181.98 241.252C1182.63 240.737 1183.41 240.389 1184.23 240.236C1184.82 240.099 1185.43 240.083 1186.02 240.188C1187.86 240.663 1190.14 241.081 1191.1 245.191Z" fill="#90A8ED" stroke="black" stroke-width="2" stroke-linecap="round" stroke-linejoin="round"/>
<path d="M1186.65 242.818C1187.92 244.536 1187.9 247.393 1187.74 249.159L1186.65 242.818Z" fill="#F1F333"/>
<path d="M1186.65 242.818C1187.92 244.536 1187.9 247.393 1187.74 249.159" stroke="black" stroke-width="2" stroke-linecap="round" stroke-linejoin="round"/>
<path d="M1184.78 249.159L1184.58 244.185" stroke="black" stroke-width="2" stroke-linecap="round" stroke-linejoin="round"/>
<path d="M1211.35 298.985C1210.28 301.69 1203.08 302.544 1195.77 302.696C1195.69 300.042 1196.5 297.439 1198.07 295.292L1199.14 295.444C1199.85 295.539 1200.6 295.653 1201.36 295.776C1203.94 296.122 1206.49 296.723 1208.95 297.57C1209.85 297.858 1210.67 298.341 1211.35 298.985Z" fill="#FF90E8" stroke="black" stroke-width="2" stroke-linecap="round" stroke-linejoin="round"/>
<path d="M1198.07 295.292C1196.5 297.439 1195.69 300.042 1195.77 302.696C1194.72 302.696 1193.67 302.696 1192.64 302.696C1192.64 301.216 1192.86 297.172 1194.85 294.808L1196.31 295.017L1198.07 295.292Z" fill="white" stroke="black" stroke-width="2" stroke-linecap="round" stroke-linejoin="round"/>
<path d="M1194.85 294.836C1192.86 297.2 1192.65 301.244 1192.64 302.725C1190.97 302.725 1189.36 302.725 1187.89 302.639C1187.22 300.351 1185.64 297.732 1182.28 297.361L1183.31 293.118L1190.48 294.181L1194.85 294.836Z" fill="#FF90E8" stroke="black" stroke-width="2" stroke-linecap="round" stroke-linejoin="round"/>
<path d="M1170.77 249.159H1169.92V252.5C1168.08 252.946 1166.92 254.161 1164.68 256.373C1162.27 258.765 1158.98 262.809 1156.14 265.011C1155.11 263.454 1154.43 261.693 1154.13 259.849C1153.85 258.006 1153.95 256.121 1154.46 254.323C1158.31 253.345 1161.97 251.713 1165.28 249.501C1167.63 247.839 1169.29 247.953 1170.77 249.159Z" fill="#FF90E8" stroke="black" stroke-width="2" stroke-linecap="round" stroke-linejoin="round"/>
<path d="M1211.64 301.092C1209.74 303.94 1206.7 305.525 1203.2 306.36C1193.46 308.686 1180.36 305.031 1180.36 305.031L1181.03 302.298C1182.55 302.392 1184.99 302.544 1187.84 302.639C1189.35 302.687 1190.96 302.715 1192.59 302.725C1193.62 302.725 1194.68 302.725 1195.72 302.725C1203.03 302.573 1210.23 301.719 1211.31 299.013C1211.59 299.271 1211.77 299.617 1211.84 299.995C1211.9 300.373 1211.83 300.759 1211.64 301.092Z" fill="white" stroke="black" stroke-width="2" stroke-linecap="round" stroke-linejoin="round"/>
<path d="M1187.84 302.639C1184.99 302.544 1182.55 302.392 1181.03 302.297L1182.23 297.361C1185.62 297.732 1187.18 300.351 1187.84 302.639Z" fill="white" stroke="black" stroke-width="2" stroke-linecap="round" stroke-linejoin="round"/>
<path d="M1205.24 264.632C1205.17 265.287 1205.07 265.951 1204.97 266.635C1203.46 275.842 1198.95 287.357 1198.5 288.467C1196.6 286.967 1191.43 289.929 1190.43 294.163L1183.27 293.1L1189.59 267.223C1182.69 269.653 1176.18 272.121 1163.56 270.27C1162.02 269.933 1160.57 269.292 1159.29 268.386C1158.01 267.479 1156.92 266.326 1156.09 264.992C1159 262.79 1162.27 258.746 1164.63 256.354C1166.87 254.142 1168.03 252.927 1169.87 252.481C1170.99 252.249 1172.14 252.204 1173.27 252.348L1199.85 254.674C1200.23 254.777 1200.6 254.92 1200.95 255.101C1201.34 255.3 1201.72 255.532 1202.08 255.794C1203.84 257.066 1205.82 259.629 1205.24 264.632Z" fill="#90A8ED" stroke="black" stroke-width="2" stroke-linecap="round" stroke-linejoin="round"/>
<path d="M1198.5 288.486V288.581" stroke="#5000FF" stroke-width="2" stroke-linecap="round" stroke-linejoin="round"/>
<path d="M1199.14 295.444L1198.07 295.292L1196.31 295.045L1194.85 294.837L1190.43 294.182C1191.38 289.948 1196.59 286.986 1198.5 288.486C1198.84 288.758 1199.07 289.147 1199.15 289.578C1199.41 291.525 1199.4 293.498 1199.14 295.444Z" fill="white" stroke="black" stroke-width="2" stroke-linecap="round" stroke-linejoin="round"/>
<path d="M1221.06 281.87C1220.05 284.693 1218.91 287.462 1217.62 290.166C1216.97 289.632 1216.18 289.328 1215.34 289.303C1212.36 289.046 1210.01 293.1 1209.22 296.318L1201.37 295.776L1210.19 263.796C1208.51 264.84 1206.76 265.792 1204.98 266.644C1205.08 265.961 1205.17 265.296 1205.25 264.641C1205.83 259.639 1203.85 257.047 1202.14 255.823C1201.78 255.561 1201.41 255.329 1201.01 255.13C1206.23 254.854 1214.42 254.237 1219.14 255.13C1220.21 255.258 1221.25 255.642 1222.15 256.25C1226.55 259.828 1225.04 271.181 1221.06 281.87Z" fill="#90A8ED" stroke="black" stroke-width="2" stroke-linecap="round" stroke-linejoin="round"/>
<path d="M1218.84 297.01L1217.12 296.877L1212.59 296.555L1209.18 296.317C1209.97 293.137 1212.32 289.046 1215.3 289.302C1216.14 289.328 1216.94 289.632 1217.58 290.166C1218.98 291.343 1219.15 293.707 1218.84 297.01Z" fill="white" stroke="black" stroke-width="2" stroke-linecap="round" stroke-linejoin="round"/>
<path d="M1212.63 296.555C1212.23 297.625 1211.96 298.741 1211.85 299.877C1211.76 299.54 1211.59 299.232 1211.35 298.985C1210.68 298.346 1209.87 297.863 1208.99 297.57C1206.52 296.723 1203.98 296.122 1201.4 295.776L1209.25 296.317L1212.63 296.555Z" fill="#FF90E8" stroke="black" stroke-width="2" stroke-linecap="round" stroke-linejoin="round"/>
<path d="M1221.85 304.595L1213.31 304.747C1213.7 303.304 1214.98 298.975 1217.11 296.877L1218.83 297.01C1220.63 297.153 1222.08 297.276 1222.85 297.362C1226.9 297.798 1225.65 301.823 1221.85 304.595Z" fill="#FF90E8" stroke="black" stroke-width="2" stroke-linecap="round" stroke-linejoin="round"/>
<path d="M1221.85 304.595C1220.73 305.409 1219.49 306.049 1218.18 306.493C1215.39 307.442 1208.47 308.287 1203.2 306.332C1204.64 306.004 1206.03 305.497 1207.35 304.823L1210.25 304.775L1213.33 304.718L1221.85 304.595Z" fill="white" stroke="black" stroke-width="2" stroke-linecap="round" stroke-linejoin="round"/>
<path d="M1211.67 301.035C1211.54 302.406 1211.06 303.718 1210.25 304.832L1207.35 304.88C1209.09 304.005 1210.56 302.697 1211.64 301.083L1211.67 301.035Z" fill="#FF90E8" stroke="black" stroke-width="2" stroke-linecap="round" stroke-linejoin="round"/>
<path d="M1217.15 296.878C1215 298.975 1213.72 303.304 1213.36 304.747L1210.28 304.804C1211.09 303.689 1211.57 302.378 1211.7 301.007C1211.9 300.655 1211.95 300.244 1211.88 299.849C1211.99 298.712 1212.26 297.596 1212.66 296.526L1217.15 296.878Z" fill="white" stroke="black" stroke-width="2" stroke-linecap="round" stroke-linejoin="round"/>
<path d="M1184.23 240.274C1183.4 240.427 1182.62 240.775 1181.97 241.29C1181.3 241.806 1180.78 242.473 1180.43 243.235C1179.61 242.286 1177.58 241.508 1175.74 241.166C1173.09 238.195 1170.31 238.717 1166.39 240.549C1163.54 241.906 1159.36 243.606 1156.36 245.409C1156.48 245.048 1156.59 244.688 1156.73 244.317C1157.15 243.112 1157.71 241.956 1158.4 240.872C1157.55 239.922 1153.57 237.815 1149.85 237.958C1152.94 233.164 1156.86 228.465 1160.47 226.13C1160.8 226.13 1161.14 226.13 1161.48 226.13C1162.26 227.116 1163.27 227.898 1164.41 228.408C1163.88 230.307 1165.28 234.91 1166.54 236.088C1167.44 234.573 1168.59 233.216 1169.94 232.072C1170.91 233.022 1171.7 234.129 1172.29 235.347C1172.63 233.921 1173.19 232.566 1174 231.341C1175.55 232.195 1176.94 233.291 1178.15 234.588C1178.87 233.562 1179.29 230.791 1179.1 228.655C1179.1 228.601 1179.1 228.548 1179.1 228.494C1182.19 232.433 1183.96 239.04 1184.23 240.274Z" fill="#FF90E8" stroke="black" stroke-width="2" stroke-linecap="round" stroke-linejoin="round"/>
<path d="M1158.42 240.872C1159.76 238.789 1161.51 236.998 1163.56 235.604L1158.42 240.872Z" fill="#FF90E8"/>
<path d="M1158.42 240.872C1159.76 238.789 1161.51 236.998 1163.56 235.604" stroke="black" stroke-width="2" stroke-linecap="round" stroke-linejoin="round"/>
<path d="M1180.45 243.235C1180.26 243.676 1180.14 244.144 1180.11 244.621C1180.09 244.833 1180.09 245.046 1180.11 245.257C1179.68 245.563 1179.21 245.814 1178.73 246.007C1178.17 244.775 1177.5 243.59 1176.75 242.466C1176.45 242.011 1176.12 241.576 1175.76 241.166C1177.61 241.508 1179.63 242.286 1180.45 243.235Z" fill="#90A8ED" stroke="black" stroke-width="2" stroke-linecap="round" stroke-linejoin="round"/>
<path d="M1204.3 231.493L1194.11 253.165" stroke="black" stroke-width="2" stroke-linecap="round" stroke-linejoin="round"/>
<path d="M1229.76 231.133L1220.27 254.93C1220.27 254.93 1219.88 254.997 1219.17 255.082C1214.42 254.228 1206.26 254.845 1201.04 255.082C1200.66 254.905 1200.27 254.771 1199.86 254.683L1173.28 252.358C1171.99 252.216 1170.68 252.409 1169.48 252.918V249.121H1189.09L1191.06 245.191L1198.65 230.003H1228.96C1229.1 230.003 1229.23 230.035 1229.35 230.097C1229.48 230.16 1229.58 230.25 1229.66 230.361C1229.73 230.471 1229.78 230.599 1229.8 230.734C1229.82 230.868 1229.81 231.004 1229.76 231.133Z" fill="black" stroke="black" stroke-width="2" stroke-linecap="round" stroke-linejoin="round"/>
<path d="M1205.11 231.721L1195.01 253.506C1195.01 253.506 1213.81 253.506 1218.97 253.981C1220.66 249.434 1226.28 235.081 1227.51 232.053C1227.53 231.991 1227.54 231.922 1227.53 231.856C1227.52 231.789 1227.5 231.726 1227.45 231.671C1227.42 231.617 1227.37 231.573 1227.3 231.544C1227.25 231.514 1227.18 231.5 1227.11 231.503L1205.11 231.721Z" fill="white" stroke="white" stroke-width="2" stroke-miterlimit="10"/>
<path d="M1248.2 328.43L1344.15 438.116" stroke="black" stroke-width="2" stroke-miterlimit="10" stroke-linecap="round"/>
<path d="M1336.79 438.685L1243.22 328.43" stroke="black" stroke-width="2" stroke-miterlimit="10" stroke-linecap="round"/>
<path d="M829.766 328.706L922.631 438.325" stroke="black" stroke-width="2" stroke-miterlimit="10" stroke-linecap="round"/>
<path d="M820.918 328.706L913.783 438.325" stroke="black" stroke-width="2" stroke-miterlimit="10" stroke-linecap="round"/>
<path d="M389.57 438.695L295.329 328.43" stroke="black" stroke-width="2" stroke-miterlimit="10" stroke-linecap="round"/>
<path d="M382.763 438.695L290.373 328.43" stroke="black" stroke-width="2" stroke-miterlimit="10" stroke-linecap="round"/>
<path d="M506.908 127.389H439.948C436.65 127.392 433.385 126.745 430.337 125.484C427.29 124.223 424.521 122.375 422.189 120.045C419.856 117.713 418.005 114.946 416.743 111.9C415.48 108.854 414.831 105.589 414.831 102.291C414.828 98.9915 415.477 95.7241 416.738 92.6761C417.999 89.6277 419.849 86.8578 422.182 84.5249C424.514 82.1921 427.284 80.342 430.333 79.0807C433.381 77.8193 436.649 77.1714 439.948 77.1738H506.908C513.564 77.1738 519.948 79.8182 524.655 84.5249C529.362 89.2318 532.006 95.6159 532.006 102.272L642.186 108.67C642.337 108.67 642.337 108.917 642.186 108.917C624.843 109.315 537.816 111.299 530.174 111.641C528.307 116.286 525.094 120.266 520.948 123.072C516.803 125.878 511.914 127.382 506.908 127.389Z" fill="white" stroke="black" stroke-width="2" stroke-miterlimit="10"/>
<path d="M449.525 108.699C449.463 105.857 449.666 103.015 450.133 100.212C452.307 102.946 458.733 108.699 458.733 108.699L459.018 98.7979" stroke="black" stroke-width="2" stroke-linecap="round" stroke-linejoin="round"/>
<path d="M471.395 98.7979L464.56 99.3959L463.611 109.278L470.654 108.689" stroke="black" stroke-width="2" stroke-linecap="round" stroke-linejoin="round"/>
<path d="M464.116 104.038H470.543" stroke="black" stroke-width="2" stroke-linecap="round" stroke-linejoin="round"/>
<path d="M474.822 109.657C474.822 109.657 476.455 102.415 480.261 99.4814C482.796 100.307 481.894 109.657 481.894 109.657" stroke="black" stroke-width="2" stroke-linecap="round" stroke-linejoin="round"/>
<path d="M476.256 105.319L482.046 104.92" stroke="black" stroke-width="2" stroke-linecap="round" stroke-linejoin="round"/>
<path d="M485.778 100.544L495.27 99.4717" stroke="black" stroke-width="2" stroke-linecap="round" stroke-linejoin="round"/>
<path d="M490.987 99.9561V109.278" stroke="black" stroke-width="2" stroke-linecap="round" stroke-linejoin="round"/>
<path d="M499.615 97.9341L499.378 104.569" stroke="black" stroke-width="2" stroke-linecap="round" stroke-linejoin="round"/>
<path d="M499.038 109.524C499.357 109.524 499.616 109.265 499.616 108.945C499.616 108.625 499.357 108.366 499.038 108.366C498.718 108.366 498.459 108.625 498.459 108.945C498.459 109.265 498.718 109.524 499.038 109.524Z" stroke="black" stroke-width="2" stroke-linecap="round" stroke-linejoin="round"/>
<path d="M1303.48 271.4H1293.14L1288.43 233.392H1299.29L1303.48 271.4Z" fill="#98282A" stroke="black" stroke-width="2" stroke-miterlimit="10" stroke-linecap="round"/>
<path d="M1123.04 306.417L1125.72 299.193" stroke="black" stroke-width="2" stroke-miterlimit="10" stroke-linecap="round"/>
<path d="M1119.43 306.655L1120.91 292.739" stroke="black" stroke-width="2" stroke-miterlimit="10" stroke-linecap="round"/>
<path d="M1106.45 306.92L1099.21 296.346" stroke="black" stroke-width="2" stroke-miterlimit="10" stroke-linecap="round"/>
<path d="M1106.13 303.275L1101.21 291.694" stroke="black" stroke-width="2" stroke-miterlimit="10" stroke-linecap="round"/>
<path d="M1295.95 311.989L1291.41 305.98" stroke="black" stroke-width="2" stroke-miterlimit="10" stroke-linecap="round"/>
<path d="M1297 308.98L1293.15 297.874" stroke="black" stroke-width="2" stroke-miterlimit="10" stroke-linecap="round"/>
<path d="M1310.48 306.541L1314.04 294.523" stroke="black" stroke-width="2" stroke-miterlimit="10" stroke-linecap="round"/>
<path d="M1307.13 304.718L1309.36 293.963" stroke="black" stroke-width="2" stroke-miterlimit="10" stroke-linecap="round"/>
<path d="M1032.18 327.063L1036.3 318.691" stroke="black" stroke-width="2" stroke-miterlimit="10" stroke-linecap="round"/>
<path d="M1030.41 311.553L1028.05 328.136" stroke="black" stroke-width="2" stroke-miterlimit="10" stroke-linecap="round"/>
<path d="M1021.33 305.98L1024.68 328.136" stroke="black" stroke-width="2" stroke-miterlimit="10" stroke-linecap="round"/>
<path d="M1015.48 319.555L1021.33 327.965" stroke="black" stroke-width="2" stroke-miterlimit="10" stroke-linecap="round"/>
<path d="M1278.51 428.329L1271.36 440.081" stroke="black" stroke-width="2" stroke-miterlimit="10" stroke-linecap="round"/>
<path d="M1271.36 413.208L1268.02 437.356" stroke="black" stroke-width="2" stroke-miterlimit="10" stroke-linecap="round"/>
<path d="M1259.8 423.194L1262.73 439.379" stroke="black" stroke-width="2" stroke-miterlimit="10" stroke-linecap="round"/>
<path d="M273.61 431.016L266.007 448.045" stroke="black" stroke-width="2" stroke-miterlimit="10" stroke-linecap="round"/>
<path d="M266.006 413.018L265.523 434.215" stroke="black" stroke-width="2" stroke-miterlimit="10" stroke-linecap="round"/>
<path d="M255.433 420.023L261.47 442.91" stroke="black" stroke-width="2" stroke-miterlimit="10" stroke-linecap="round"/>
<path d="M606.227 312.037L598.614 329.066" stroke="black" stroke-width="2" stroke-miterlimit="10" stroke-linecap="round"/>
<path d="M598.613 294.039L598.13 315.236" stroke="black" stroke-width="2" stroke-miterlimit="10" stroke-linecap="round"/>
<path d="M588.048 301.044L594.085 323.931" stroke="black" stroke-width="2" stroke-miterlimit="10" stroke-linecap="round"/>
<path d="M1393.79 331.819L1401.85 313.081" stroke="black" stroke-width="2" stroke-miterlimit="10" stroke-linecap="round"/>
<path d="M1389.13 328.032L1393.11 302.782" stroke="black" stroke-width="2" stroke-miterlimit="10" stroke-linecap="round"/>
<path d="M1385.15 325.601L1381.75 302.297" stroke="black" stroke-width="2" stroke-miterlimit="10" stroke-linecap="round"/>
<path d="M357.818 312.265L346.342 328.43" stroke="black" stroke-width="2" stroke-miterlimit="10" stroke-linecap="round"/>
<path d="M343.71 306.531L342.278 328.43" stroke="black" stroke-width="2" stroke-miterlimit="10" stroke-linecap="round"/>
<path d="M326.977 294.761L337.371 328.431" stroke="black" stroke-width="2" stroke-miterlimit="10" stroke-linecap="round"/>
<path d="M65.1833 236.98L57.8931 253.041" stroke="black" stroke-width="2" stroke-miterlimit="10" stroke-linecap="round"/>
<path d="M53.5083 228.285V248.238" stroke="black" stroke-width="2" stroke-miterlimit="10" stroke-linecap="round"/>
<path d="M40.8457 229.196L46.7216 251.294" stroke="black" stroke-width="2" stroke-miterlimit="10" stroke-linecap="round"/>
<path d="M65.9912 73.0542L70.9463 81.5499" stroke="black" stroke-width="2" stroke-miterlimit="10" stroke-linecap="round"/>
<path d="M56.0042 87.7866L53.3843 96.2159" stroke="black" stroke-width="2" stroke-miterlimit="10" stroke-linecap="round"/>
<path d="M49.4927 83.8853V94.7256" stroke="black" stroke-width="2" stroke-miterlimit="10" stroke-linecap="round"/>
<path d="M42.1934 86.0112L46.3036 98.0572" stroke="black" stroke-width="2" stroke-miterlimit="10" stroke-linecap="round"/>
<path d="M1370.71 197.425L1361.35 208.635" stroke="black" stroke-width="2" stroke-miterlimit="10" stroke-linecap="round"/>
<path d="M1362.45 189.755L1357.19 208.873" stroke="black" stroke-width="2" stroke-miterlimit="10" stroke-linecap="round"/>
<path d="M1352.07 193.115V208.987" stroke="black" stroke-width="2" stroke-miterlimit="10" stroke-linecap="round"/>
<path d="M1339.72 208.094L1339.91 207.866L1345.13 201.525" stroke="black" stroke-width="2" stroke-miterlimit="10" stroke-linecap="round"/>
<path d="M1332.24 189.242L1339.07 207.439" stroke="black" stroke-width="2" stroke-miterlimit="10" stroke-linecap="round"/>
<path d="M1323.87 196.998L1337.49 207.211" stroke="black" stroke-width="2" stroke-miterlimit="10" stroke-linecap="round"/>
<path d="M1151.87 129.487L1148.03 147.703" stroke="black" stroke-width="2" stroke-miterlimit="10" stroke-linecap="round"/>
<path d="M1142.45 138.828L1145.36 147.323" stroke="black" stroke-width="2" stroke-miterlimit="10" stroke-linecap="round"/>
<path d="M1133.28 131.233L1139.49 146.203" stroke="black" stroke-width="2" stroke-miterlimit="10" stroke-linecap="round"/>
<path d="M1122.98 127.237L1129.11 145.738" stroke="black" stroke-width="2" stroke-miterlimit="10" stroke-linecap="round"/>
<path d="M1117.06 145.605L1113.23 125.69" stroke="black" stroke-width="2" stroke-miterlimit="10" stroke-linecap="round"/>
<path d="M1104.6 122.738L1116.61 145.738" stroke="black" stroke-width="2" stroke-miterlimit="10" stroke-linecap="round"/>
<path d="M917.199 110.483L916.659 115.391" stroke="black" stroke-width="2" stroke-miterlimit="10" stroke-linecap="round"/>
<path d="M910.584 104.569L909.673 112.932" stroke="black" stroke-width="2" stroke-miterlimit="10" stroke-linecap="round"/>
<path d="M905.26 101.921V111.167" stroke="black" stroke-width="2" stroke-miterlimit="10" stroke-linecap="round"/>
<path d="M881.082 93.0737L882.477 100.127" stroke="black" stroke-width="2" stroke-miterlimit="10" stroke-linecap="round"/>
<path d="M335.055 245.381H341.899L348.326 153.294H341.69L335.055 245.381Z" stroke="black" stroke-width="2" stroke-linecap="round" stroke-linejoin="round"/>
<path d="M338.52 245.381L345.269 153.294" stroke="black" stroke-width="2" stroke-linecap="round" stroke-linejoin="round"/>
<path d="M313.812 245.808L313.176 144.238H306.978L306.133 243.596L309.968 245.808H313.812Z" stroke="black" stroke-width="2" stroke-linecap="round" stroke-linejoin="round"/>
<path d="M309.967 144.238V245.808" stroke="black" stroke-width="2" stroke-linecap="round" stroke-linejoin="round"/>
<path d="M347.878 178.458H324.005" stroke="black" stroke-width="2" stroke-linecap="round" stroke-linejoin="round"/>
<path d="M339.678 181.211H325.012" stroke="black" stroke-width="2" stroke-linecap="round" stroke-linejoin="round"/>
<path d="M304.736 176.181H323.133" stroke="black" stroke-width="2" stroke-linecap="round" stroke-linejoin="round"/>
<path d="M313.612 173.779H322.971" stroke="black" stroke-width="2" stroke-linecap="round" stroke-linejoin="round"/>
<path d="M318.054 235.774L322.525 244.498" stroke="black" stroke-width="2" stroke-linecap="round" stroke-linejoin="round"/>
<path d="M328.136 232.31L324.017 243.321" stroke="black" stroke-width="2" stroke-linecap="round" stroke-linejoin="round"/>
<path d="M330.842 237.825C330.547 237.825 324.88 244.27 324.88 244.27" stroke="black" stroke-width="2" stroke-linecap="round" stroke-linejoin="round"/>
<path d="M324.005 243.843V166.631" stroke="black" stroke-width="2" stroke-linecap="round" stroke-linejoin="round"/>
<path d="M324.917 167.761C327.385 163.147 328.837 159.161 331.666 156.93C334.495 154.699 340.485 148.273 347.993 137.119C355.447 126.396 361.534 114.786 366.114 102.557C370.49 91.4506 371.231 86.0684 371.231 86.0684" stroke="black" stroke-width="2" stroke-linecap="round" stroke-linejoin="round"/>
<path d="M324.652 166.631C324.652 166.631 325.45 159.303 327.567 155.174C332.037 146.441 339.081 136.236 342.802 126.915C346.523 117.593 352.181 104.797 356.129 76.2246" stroke="black" stroke-width="2" stroke-linecap="round" stroke-linejoin="round"/>
<path d="M324.005 94.2793V172.127" stroke="black" stroke-width="2" stroke-linecap="round" stroke-linejoin="round"/>
<path d="M313.811 76.2246C307.888 109.686 319.193 155.012 324.642 168.425" stroke="black" stroke-width="2" stroke-linecap="round" stroke-linejoin="round"/>
<path d="M277.966 97.687C284.706 139.302 317.483 159.739 323.132 169.83" stroke="black" stroke-width="2" stroke-linecap="round" stroke-linejoin="round"/>
<path d="M271.702 117.137C274.161 127.218 273.601 130.579 279.249 137.071C287.441 146.507 305.268 155.553 314.883 160.356" stroke="black" stroke-width="2" stroke-linecap="round" stroke-linejoin="round"/>
<path d="M272.937 124.56C271.484 123.792 270.582 123.393 270.231 123.459C269.88 123.526 270.63 125.7 268.921 127.721C268.02 128.755 267.428 130.021 267.213 131.376C266.975 131.784 265.485 131.936 264.906 130.569C264.194 128.879 263.738 125.149 265.779 122.975C267.82 120.801 269.728 121.143 270.44 121.722C271.123 121.986 271.824 122.199 272.538 122.358L272.937 124.56Z" fill="black" stroke="black" stroke-width="2" stroke-linecap="round" stroke-linejoin="round"/>
<path d="M275.727 131.205C276.904 129.43 278.176 128.063 280.73 128.034C281.775 127.973 282.811 128.264 283.671 128.861C284.532 129.458 285.167 130.327 285.476 131.328C285.772 132.445 285.772 133.62 285.476 134.736C285.324 135.192 284.603 135.458 283.938 134.736C283.638 134.388 283.271 134.104 282.858 133.902C282.445 133.699 281.995 133.583 281.536 133.559C280.273 133.144 279.105 132.483 278.1 131.613C277.569 131.252 276.876 132.676 276.876 132.676L275.727 131.205Z" fill="black" stroke="black" stroke-width="2" stroke-linecap="round" stroke-linejoin="round"/>
<path d="M298.681 143.45C295.662 142.178 289.321 141.087 286.872 140.84C285.249 140.679 285.781 137.318 291.372 138.467C296.963 139.615 297.153 140.84 297.153 140.84L298.681 143.45Z" fill="black" stroke="black" stroke-width="2" stroke-linecap="round" stroke-linejoin="round"/>
<path d="M292.225 133.891C293.174 131.623 295.918 132.809 296.971 133.236C298.025 133.664 300.768 134.793 301.309 133.236C301.85 131.68 300.36 129.743 298.946 129.316C296.948 129.012 294.907 129.222 293.013 129.924C292.614 130.07 292.251 130.297 291.945 130.591C291.639 130.885 291.398 131.24 291.238 131.632L292.225 133.891Z" fill="black" stroke="black" stroke-width="2" stroke-linecap="round" stroke-linejoin="round"/>
<path d="M289.424 128.32C289.424 127.076 289.708 124.523 289.708 124.523C289.708 124.523 293.287 126.307 296.277 124.997C298.992 123.811 296.41 121.01 292.214 121.153C288.019 121.295 287.99 122.567 287.914 123.051C287.838 123.535 287.772 125.7 287.772 125.7L289.424 128.32Z" fill="black" stroke="black" stroke-width="2" stroke-linecap="round" stroke-linejoin="round"/>
<path d="M283.084 115.315C283.084 115.163 283.378 112.999 284.033 112.524C285.865 111.738 287.874 111.457 289.852 111.708C292.548 111.945 293.45 114.394 293.431 116.397C293.412 118.4 292.776 119.245 291.694 118.59C290.612 117.935 288.447 115.03 285.457 114.736C284.962 115.91 284.642 117.152 284.508 118.419C283.917 117.441 283.44 116.4 283.084 115.315Z" fill="black" stroke="black" stroke-width="2" stroke-linecap="round" stroke-linejoin="round"/>
<path d="M282.601 116.264C280.265 114.66 275.956 113.416 274.646 116.387C274.333 117.128 274.646 118.96 275.918 118.798C277.19 118.637 278.604 117.261 280.36 117.422C282.117 117.583 283.835 119.558 283.835 119.558L282.601 116.264Z" fill="black" stroke="black" stroke-width="2" stroke-linecap="round" stroke-linejoin="round"/>
<path d="M282.297 112.296C283.104 109.581 283.493 108.974 284.034 108.917C284.575 108.86 289.122 109.249 290.764 108.414C292.406 107.578 290.394 106.088 288.733 105.946C287.072 105.803 284.661 105.803 283.256 106.999C282.374 107.815 281.773 108.887 281.538 110.065L282.297 112.296Z" fill="black" stroke="black" stroke-width="2" stroke-linecap="round" stroke-linejoin="round"/>
<path d="M280.616 106.506C280.616 106.506 284.944 104.607 284.717 103.231C284.489 101.854 282.334 102.376 280.037 103.981L279.923 105.11L280.616 106.506Z" fill="black" stroke="black" stroke-width="2" stroke-linecap="round" stroke-linejoin="round"/>
<path d="M278.823 103.81C277 102.775 274.257 102.329 273.307 103.117C272.358 103.905 274.75 105.385 276.687 105.689C278.623 105.993 279.364 106.154 279.364 106.154L278.823 103.81Z" fill="black" stroke="black" stroke-width="2" stroke-linecap="round" stroke-linejoin="round"/>
<path d="M312.909 116.093C311.447 114.09 309.691 112.571 307.954 112.666C306.217 112.761 307.954 115.789 309.72 116.843C310.186 117.148 310.713 117.347 311.264 117.426C311.816 117.505 312.377 117.461 312.909 117.299V116.093Z" fill="black" stroke="black" stroke-width="2" stroke-linecap="round" stroke-linejoin="round"/>
<path d="M313.517 115.22C314.969 113.055 315.121 110.378 316.26 109.353C317.399 108.328 319.45 108.47 318.225 111.347C317.276 113.558 314.988 117.583 313.944 117.251C312.9 116.919 313.517 115.22 313.517 115.22Z" fill="black" stroke="black" stroke-width="2" stroke-linecap="round" stroke-linejoin="round"/>
<path d="M311.998 95.1431C311.365 94.5044 310.547 94.0791 309.662 93.926C308.775 93.7729 307.863 93.8997 307.052 94.2887C305.845 94.8586 304.82 95.7554 304.097 96.8783C303.375 98.0013 302.981 99.3036 302.961 100.639C302.8 102.993 307.138 102.3 308.343 100.44C309.214 99.1129 309.808 97.6254 310.09 96.0639L311.628 97.5637L311.998 95.1431Z" fill="black" stroke="black" stroke-width="2" stroke-linecap="round" stroke-linejoin="round"/>
<path d="M312.909 90.729C313.581 89.6454 314.502 88.7376 315.596 88.0806C315.254 90.5581 316.279 94.3836 317.608 94.3836C318.937 94.3836 319.459 92.3142 319.393 90.2164C319.326 88.1186 319.544 85.8214 317.266 85.3088C314.988 84.7962 314.295 87.53 312.757 88.9159L312.909 90.729Z" fill="black" stroke="black" stroke-width="2" stroke-linecap="round" stroke-linejoin="round"/>
<path d="M312.757 81.7967C312.262 81.3217 311.648 80.9896 310.979 80.8359C310.31 80.6821 309.612 80.7124 308.96 80.9234C306.492 81.455 305.866 85.793 306.274 87.7675C306.682 89.7419 308.229 88.7167 308.96 87.1315C309.691 85.5462 310.365 83.9135 312.586 84.2837L312.757 81.7967Z" fill="black" stroke="black" stroke-width="2" stroke-linecap="round" stroke-linejoin="round"/>
<path d="M323.418 129.848C323.418 129.848 321.453 127.598 320.656 127.399C319.859 127.199 318.52 127.835 319.289 129.126C319.708 129.885 320.281 130.547 320.973 131.069C321.665 131.591 322.46 131.961 323.305 132.155C323.361 131.414 323.418 129.848 323.418 129.848Z" fill="black" stroke="black" stroke-width="2" stroke-linecap="round" stroke-linejoin="round"/>
<path d="M324.547 127.816C326.331 125.633 327.85 124.969 329.132 124.807C331.495 124.599 333.204 126.174 333.878 124.997C334.552 123.82 332.929 121.713 330.85 121.542C328.771 121.371 325.733 124.076 324.765 125.016L324.442 126.915L324.547 127.816Z" fill="black" stroke="black" stroke-width="2" stroke-linecap="round" stroke-linejoin="round"/>
<path d="M324.775 131.357L327.053 130.673C327.053 130.673 325.999 133.189 327.053 134.594C328.107 135.999 329.018 136.948 330.451 136.616C331.885 136.283 331.771 134.167 331.401 133.208C331.03 132.249 330.774 129.117 329.16 128.775C327.547 128.433 326.132 129.325 324.604 129.42L324.775 131.357Z" fill="black" stroke="black" stroke-width="2" stroke-linecap="round" stroke-linejoin="round"/>
<path d="M323.389 118.039C321.633 116.795 320.807 117.27 318.728 118.2C316.649 119.131 317.447 115.02 318.253 114.081C319.06 113.141 321.262 112.856 323.511 114.261L323.389 118.039Z" fill="black" stroke="black" stroke-width="2" stroke-linecap="round" stroke-linejoin="round"/>
<path d="M324.509 111.537C326.075 109.866 327.613 108.964 329.407 109.382C331.201 109.799 333.327 114.194 333.308 115.523C333.289 116.852 331.922 116.473 330.812 115.628C330.322 115.14 329.686 114.825 329.001 114.731C328.315 114.636 327.619 114.768 327.015 115.106C325.935 115.511 325.026 116.275 324.442 117.27L324.509 111.537Z" fill="black" stroke="black" stroke-width="2" stroke-linecap="round" stroke-linejoin="round"/>
<path d="M323.551 100.725C321.121 99.4811 319.28 98.6932 318.179 99.5001C317.077 100.307 318.387 102.547 320.637 103.088C322.887 103.629 323.789 102.841 323.789 102.841L323.551 100.725Z" fill="black" stroke="black" stroke-width="2" stroke-linecap="round" stroke-linejoin="round"/>
<path d="M324.519 97.108C326.418 95.4374 327.661 94.8868 328.753 95.0007C329.845 95.1146 330.139 96.8043 328.886 98.4749C327.586 100.016 326.121 101.409 324.519 102.633C324.111 102.908 324.187 99.7849 324.187 99.6805C324.187 99.5761 324.519 97.108 324.519 97.108Z" fill="black" stroke="black" stroke-width="2" stroke-linecap="round" stroke-linejoin="round"/>
<path d="M345.003 120.051C343.987 119.102 339.554 116.463 337.618 116.539C335.681 116.615 337.922 120.004 339.877 120.944C341.833 121.883 343.446 122.396 344.49 122.092C345.535 121.789 345.003 120.051 345.003 120.051Z" fill="black" stroke="black" stroke-width="2" stroke-linecap="round" stroke-linejoin="round"/>
<path d="M353.129 120.726C353.319 119.558 351.04 119.292 349.256 119.359C347.471 119.425 345.639 119.653 345.639 119.653L345.013 122.178C346.725 122.446 348.466 122.476 350.186 122.263C352.227 121.855 352.996 121.694 353.129 120.726Z" fill="black" stroke="black" stroke-width="2" stroke-linecap="round" stroke-linejoin="round"/>
<path d="M349.968 106.8C349.711 105.851 347.803 101.959 346.845 101.741C345.886 101.522 343.513 103.44 342.469 105.471C341.424 107.503 339.621 110.683 340.713 111.423C341.804 112.163 344.158 111.119 345.459 108.499C346.064 107.389 346.56 106.222 346.94 105.016L349.161 108.158L349.968 106.8Z" fill="black" stroke="black" stroke-width="2" stroke-linecap="round" stroke-linejoin="round"/>
<path d="M351.23 103.591C353.366 102.016 353.755 101.313 355.654 101.313C357.552 101.313 361.074 101.066 362.621 104.645C363.067 105.832 360.647 106.819 358.198 106.126C355.749 105.433 354.249 104.17 352.872 104.227C351.496 104.284 350.613 106.306 350.613 106.306L351.23 103.591Z" fill="black" stroke="black" stroke-width="2" stroke-linecap="round" stroke-linejoin="round"/>
<path d="M354.221 85.4417C354.221 85.4417 351.373 82.4611 349.75 82.1478C348.126 81.8346 343.798 90.1025 344.624 92.3522C345.45 94.602 350.262 92.4187 350.765 88.6122C350.962 87.4373 351.089 86.2519 351.145 85.062C351.145 85.062 353.433 86.1062 353.993 87.2168C354.448 86.9985 354.221 85.4417 354.221 85.4417Z" fill="black" stroke="black" stroke-width="2" stroke-linecap="round" stroke-linejoin="round"/>
<path d="M354.581 90.0741C355.917 89.4003 357.316 88.8598 358.758 88.4604C358.805 90.4348 358.473 95.3614 360.932 96.7094C363.39 98.0573 364.472 97.82 364.197 93.9945C363.922 90.169 362.251 87.1599 360.523 86.4575C359.574 86.0683 354.685 88.2326 354.685 88.2326L354.581 90.0741Z" fill="black" stroke="black" stroke-width="2" stroke-linecap="round" stroke-linejoin="round"/>
<path d="M355.692 83.0783C357.856 81.7589 359.66 80.5153 360.637 81.1798C361.615 81.8443 359.546 84.9768 358.16 85.9261C357.724 86.2671 357.198 86.4739 356.648 86.521C356.096 86.5682 355.543 86.4538 355.056 86.1918L355.692 83.0783Z" fill="black" stroke="black" stroke-width="2" stroke-linecap="round" stroke-linejoin="round"/>
<path d="M344.217 136.388C342.755 136.388 341.91 138.22 342.983 139.805C343.406 140.505 343.923 141.144 344.52 141.704L345.821 139.378C345.821 139.378 345.346 136.559 344.217 136.388Z" fill="black" stroke="black" stroke-width="2" stroke-linecap="round" stroke-linejoin="round"/>
<path d="M344.976 142.112C347.32 142.881 347.14 144.295 350.244 144.153C353.348 144.011 353.87 143.147 353.775 142.112C353.68 141.077 352.57 140.214 350.728 139.881C348.886 139.549 347.159 140.005 346.931 139.701C346.703 139.397 344.976 142.112 344.976 142.112Z" fill="black" stroke="black" stroke-width="2" stroke-linecap="round" stroke-linejoin="round"/>
<path d="M349.787 135.183C349.787 135.183 356.28 134.29 356.764 134.29C357.172 133.521 358.397 133.341 360.884 135.183C363.147 136.89 364.718 139.357 365.308 142.131C365.868 144.694 361.643 142.72 360.419 141.087C359.194 139.454 357.789 136.284 356.916 135.97C356.043 135.657 348.506 137.024 348.506 137.024L349.787 135.183Z" fill="black" stroke="black" stroke-width="2" stroke-linecap="round" stroke-linejoin="round"/>
<path d="M355.417 124.684C353.997 124.112 352.44 123.963 350.936 124.256C350.427 124.444 349.971 124.75 349.602 125.147C349.231 125.545 348.961 126.023 348.81 126.544C348.753 127.408 349.759 127.873 350.661 127.427C351.271 127.011 351.707 126.387 351.885 125.671C352.744 125.555 353.616 125.697 354.391 126.079L355.417 124.684Z" fill="black" stroke="black" stroke-width="2" stroke-linecap="round" stroke-linejoin="round"/>
<path d="M356.517 124.741C356.517 124.741 358.7 124.741 360.02 124.646C361.339 124.551 362.317 124.57 363.475 126.478C364.633 128.386 365.297 129.828 365.373 130.949C365.449 132.069 363.94 131.993 362.687 130.189C361.434 128.386 361.472 126.392 360.485 126.231C359.498 126.069 355.881 126.117 355.881 126.117L356.517 124.741Z" fill="black" stroke="black" stroke-width="2" stroke-linecap="round" stroke-linejoin="round"/>
<path d="M360.608 114.28C359.042 110.322 358.32 108.793 356.972 108.3C355.625 107.806 355.34 111.243 356.669 113.274C357.998 115.305 358.501 116.815 359.621 116.539C360.741 116.264 360.608 114.28 360.608 114.28Z" fill="black" stroke="black" stroke-width="2" stroke-linecap="round" stroke-linejoin="round"/>
<path d="M361.512 114.726C363.942 114.328 368.441 112.828 370.596 113.559C372.751 114.29 369.02 117.023 365.356 117.023H360.259L361.512 114.726Z" fill="black" stroke="black" stroke-width="2" stroke-linecap="round" stroke-linejoin="round"/>
<path d="M366.218 100.905C365.269 99.3861 363.693 98.6646 362.696 99.5C361.7 100.335 364.88 102.101 364.899 103.819C365.468 103.515 366.218 100.905 366.218 100.905Z" fill="black" stroke="black" stroke-width="2" stroke-linecap="round" stroke-linejoin="round"/>
<path d="M367.273 100.193C369.912 98.2282 375.398 96.0354 380.686 98.9686C381.882 99.6141 381.844 100.934 377.781 101C375.281 100.966 372.809 101.52 370.563 102.618C368.317 103.717 366.36 105.328 364.852 107.322C365.982 103.487 367.273 100.193 367.273 100.193Z" fill="black" stroke="black" stroke-width="2" stroke-linecap="round" stroke-linejoin="round"/>
<path d="M1079.42 151.519V104.569H926.988V121.846L787.581 121.96C787.557 121.966 787.537 121.98 787.522 122C787.508 122.02 787.5 122.044 787.5 122.069C787.5 122.093 787.508 122.117 787.522 122.137C787.537 122.156 787.557 122.171 787.581 122.178L926.988 129.383V151.51L1079.42 151.519Z" fill="white" stroke="black" stroke-width="2" stroke-miterlimit="10"/>
<path d="M965.015 128.158L971.451 128.044" stroke="black" stroke-width="2" stroke-linecap="round" stroke-linejoin="round"/>
<path d="M1012.87 129.705L1019.25 129.326" stroke="black" stroke-width="2" stroke-linecap="round" stroke-linejoin="round"/>
<path d="M1034.43 128.082L1040.04 128.044" stroke="black" stroke-width="2" stroke-linecap="round" stroke-linejoin="round"/>
<path d="M950.34 132.629L951.061 124.513L959.642 132.629L960.108 122.652" stroke="black" stroke-width="2" stroke-linecap="round" stroke-linejoin="round"/>
<path d="M972.144 122.652L965.528 123.545L964.417 133.654L971.508 132.629" stroke="black" stroke-width="2" stroke-linecap="round" stroke-linejoin="round"/>
<path d="M976.435 123.972C976.435 123.972 977.384 131.433 978.978 132.277C979.985 130.749 982.31 125.88 982.31 125.88L985.804 132.629L988.556 123.136" stroke="black" stroke-width="2" stroke-linecap="round" stroke-linejoin="round"/>
<path d="M1006.39 123.127C1001.27 122.491 998.429 127.047 1005.39 128.044C1010.95 128.841 1006.98 136.037 999.406 131.756" stroke="black" stroke-width="2" stroke-linecap="round" stroke-linejoin="round"/>
<path d="M1011.55 133.521C1011.55 133.521 1014.05 124.674 1017.24 123.355C1020.25 125.453 1019.07 133.521 1019.07 133.521" stroke="black" stroke-width="2" stroke-linecap="round" stroke-linejoin="round"/>
<path d="M1023.68 123.535C1023.68 123.535 1022.22 131.186 1023.49 132.629C1025.51 132.533 1027.53 132.282 1029.52 131.879" stroke="black" stroke-width="2" stroke-linecap="round" stroke-linejoin="round"/>
<path d="M1041.51 123.061L1035.08 123.535L1033.67 133.521L1040.46 132.629" stroke="black" stroke-width="2" stroke-linecap="round" stroke-linejoin="round"/>
<path d="M1046.55 121.76L1045.99 128.747" stroke="black" stroke-width="2" stroke-linecap="round" stroke-linejoin="round"/>
<path d="M1045.99 133.863C1046.4 133.863 1046.75 133.523 1046.75 133.104C1046.75 132.684 1046.4 132.344 1045.99 132.344C1045.57 132.344 1045.23 132.684 1045.23 133.104C1045.23 133.523 1045.57 133.863 1045.99 133.863Z" stroke="black" stroke-width="2" stroke-linecap="round" stroke-linejoin="round"/>
<path d="M1256.81 201.25H1239.19L1218.99 223.52C1218.95 223.569 1218.9 223.602 1218.83 223.612C1218.78 223.621 1218.72 223.607 1218.66 223.572C1218.62 223.537 1218.59 223.484 1218.58 223.424C1218.57 223.364 1218.58 223.303 1218.62 223.254L1230.37 201.25H1212.44V166.593H1256.81V201.25Z" fill="white" stroke="black" stroke-width="2" stroke-miterlimit="10"/>
<path d="M1236.74 171.605V194.235" stroke="black" stroke-width="2" stroke-linecap="round" stroke-linejoin="round"/>
<path d="M1230.17 172.193V194.681" stroke="black" stroke-width="2" stroke-linecap="round" stroke-linejoin="round"/>
<path d="M1243.11 176.56C1236.74 173.314 1229.23 174.368 1226.02 175.896C1222.81 177.424 1220.8 180.642 1225.9 182.92C1230.99 185.198 1242.81 181.971 1245 186.66C1247.66 192.451 1238.07 196.02 1225 190.647" stroke="black" stroke-width="2" stroke-linecap="round" stroke-linejoin="round"/>
<path d="M1101.61 109.448H1083.98L1063.78 131.718C1063.75 131.757 1063.7 131.782 1063.64 131.787C1063.59 131.793 1063.54 131.779 1063.49 131.748C1063.44 131.717 1063.41 131.671 1063.4 131.619C1063.39 131.566 1063.39 131.51 1063.41 131.461L1075.17 109.448H1057.23V74.7817H1101.61V109.448Z" fill="white" stroke="black" stroke-width="2" stroke-miterlimit="10"/>
<path d="M1081.54 79.7939V102.415" stroke="black" stroke-width="2" stroke-linecap="round" stroke-linejoin="round"/>
<path d="M1074.99 80.3823V102.87" stroke="black" stroke-width="2" stroke-linecap="round" stroke-linejoin="round"/>
<path d="M1087.92 84.7679C1081.55 81.531 1074.05 82.5847 1070.84 84.113C1067.63 85.6412 1065.63 88.8592 1070.72 91.1374C1075.82 93.4156 1087.64 90.1881 1089.82 94.8774C1092.49 100.668 1082.89 104.237 1069.82 98.8643" stroke="black" stroke-width="2" stroke-linecap="round" stroke-linejoin="round"/>
<path d="M31.3345 104.095H48.962L69.1525 126.364C69.1899 126.403 69.2402 126.429 69.2943 126.433C69.3484 126.439 69.4027 126.426 69.4475 126.394C69.4922 126.363 69.5242 126.317 69.5381 126.265C69.5519 126.212 69.5465 126.156 69.5227 126.108L57.771 104.095H75.7023V69.4375H31.3345V104.095Z" fill="white" stroke="black" stroke-width="2" stroke-miterlimit="10"/>
<path d="M56.688 74.459V97.0797" stroke="black" stroke-width="2" stroke-linecap="round" stroke-linejoin="round"/>
<path d="M50.1191 75.0381V97.5259" stroke="black" stroke-width="2" stroke-linecap="round" stroke-linejoin="round"/>
<path d="M63.057 79.4046C56.6876 76.1677 49.179 77.2214 45.9706 78.7497C42.7621 80.278 40.7497 83.4959 45.8472 85.7741C50.9446 88.0523 62.7723 84.8248 64.9461 89.5141C67.6134 95.2951 58.026 98.8643 44.9454 93.5009" stroke="black" stroke-width="2" stroke-linecap="round" stroke-linejoin="round"/>
<path d="M1215.68 137.926C1230.42 139.673 1234.81 139.673 1238.75 135.183C1244.61 140.878 1257.23 141.229 1263.83 136.464C1269.41 142.16 1275.17 144.523 1284.61 143.517" stroke="black" stroke-width="2" stroke-linecap="round" stroke-linejoin="round"/>
<path d="M1216.84 128.31C1232.86 130.911 1236.84 129.439 1240.73 126.06C1246.43 131.689 1253.73 133.597 1267.76 126.402C1269 128.16 1270.59 129.64 1272.44 130.747C1274.28 131.854 1276.34 132.565 1278.48 132.833C1280.61 133.101 1282.78 132.92 1284.84 132.303C1286.9 131.686 1288.8 130.647 1290.45 129.25C1298.32 136.35 1305.63 134.945 1311.83 132.961" stroke="black" stroke-width="2" stroke-linecap="round" stroke-linejoin="round"/>
<path d="M1219.44 121.722C1230.32 123.412 1236.79 122.386 1245.14 116.197C1248.94 123.601 1259.96 125.006 1273.62 117.697C1278.21 129.42 1294.5 120.545 1297.05 119.358C1299.78 125.946 1309.62 123.981 1316.19 121.257C1322.94 127.731 1330.91 123.981 1336.91 122.757C1345.46 127.351 1354 121.636 1354 121.636" stroke="black" stroke-width="2" stroke-linecap="round" stroke-linejoin="round"/>
<path d="M1341.91 82.4894C1345.71 82.4894 1351.11 78.1514 1351.11 78.1514C1351.11 78.1514 1355.86 85.0524 1367.73 78.1514C1372.34 83.7235 1377.63 81.806 1382.61 77.354C1387.3 82.5179 1392.53 83.8848 1398.75 77.354C1400.03 79.205 1401.77 80.6954 1403.8 81.6825C1405.82 82.6697 1408.07 83.1208 1410.32 82.9925" stroke="black" stroke-width="2" stroke-linecap="round" stroke-linejoin="round"/>
<path d="M1181.82 71.0985H1186.99C1190.24 71.0985 1198.61 67.1591 1198.61 67.1591C1198.61 72.1237 1208.73 73.2723 1219.12 66.8174C1220.28 75.446 1236.85 67.2256 1236.85 67.2256C1236.04 73.2058 1247.59 70.5574 1252.82 67.5008C1255.33 73.0729 1269.13 69.0481 1269.13 69.0481" stroke="black" stroke-width="2" stroke-linecap="round" stroke-linejoin="round"/>
<path d="M420.135 56.1859C419.983 53.4616 422.034 50.367 426.941 51.4397C428.679 47.9274 431.071 48.3451 432.998 49.2089C433.947 46.4466 436.842 44.4627 440.212 45.8296C442.11 42.137 446.534 42.2509 449.41 43.7982C451.907 41.1878 455.761 41.8333 457.953 44.026C459.766 41.2637 464.683 41.4915 466.8 43.8362C468.955 41.2637 473.986 41.3397 476.407 43.0483C478.561 41.4915 483.051 41.7953 484.352 43.2761C485.786 42.0607 487.585 41.3595 489.463 41.2838C491.341 41.2081 493.19 41.7624 494.718 42.8585C496.616 40.4379 501.828 40.5138 504.21 42.6686C507.343 39.4507 511.966 42.137 512.222 42.7825C517.443 39.2988 520.433 41.6055 521.344 42.7825C525.426 40.3619 528.492 40.9695 530.077 42.7066C531.355 41.6375 532.968 41.0519 534.634 41.0519C536.3 41.0519 537.912 41.6375 539.19 42.7066C542.826 39.7165 546.784 41.2637 549.062 42.7066C552.09 40.0582 555.802 39.5646 559.048 42.7066C562.418 39.2988 567.487 40.4759 568.807 42.6306C570.472 41.4159 572.493 40.7869 574.554 40.8418C576.615 40.8967 578.599 41.6326 580.198 42.9344C584.659 39.2988 587.915 42.5927 588.475 43.4565C590.032 40.4379 595.12 41.4536 595.775 43.39C598.157 40.0202 602.771 43.1622 603.226 44.4057C606.482 42.4408 610.374 44.5196 610.298 47.3579C613.63 45.4594 617.522 47.9654 617.152 50.2056C622.335 49.75 623.047 52.3604 623.123 53.528C626.72 53.0819 626.834 55.8442 626.834 55.8442L420.135 56.1859Z" fill="black" stroke="black" stroke-width="2" stroke-miterlimit="10"/>
<path d="M0.949219 56.0057L90.5675 55.9297C90.5675 55.9297 90.4536 53.1674 86.8654 53.6136C86.7895 52.446 86.068 49.8166 80.8851 50.2912C81.2648 48.0605 77.3634 45.545 74.0411 47.4435C74.117 44.5957 70.2441 42.5263 66.9691 44.4913C66.5135 43.2478 61.9002 40.1058 59.5176 43.4756C58.8341 41.5771 53.7651 40.5234 52.2178 43.542C51.6483 42.6782 48.4208 39.3843 43.9309 43.02C42.3331 41.7166 40.3483 40.9798 38.2872 40.9249C36.226 40.8699 34.2048 41.4999 32.5399 42.7162C31.211 40.5614 26.142 39.3843 22.7816 42.7921C19.5257 39.6122 15.8237 40.1058 12.7956 42.7921C10.4509 41.2828 6.52101 39.7356 2.85691 42.7257C2.17345 42.1751 2.05035 41.5961 0.949219 41.2923V56.0057Z" fill="black" stroke="black" stroke-width="2" stroke-miterlimit="10"/>
<path d="M324.195 1.604H225.91V56.1857H324.195V1.604Z" stroke="black" stroke-width="2" stroke-miterlimit="10"/>
<path d="M229.915 1.604H225.91V56.1857H229.915V1.604Z" fill="black" stroke="black" stroke-width="2" stroke-miterlimit="10"/>
<path d="M319.394 1.604H315.388V56.1857H319.394V1.604Z" fill="black" stroke="black" stroke-width="2" stroke-miterlimit="10"/>
<path d="M234.842 1.604V56.1857" stroke="black" stroke-width="2" stroke-miterlimit="10"/>
<path d="M248.759 1.61377V44.8994C251.183 46.2014 253.891 46.8829 256.643 46.8829C259.394 46.8829 262.102 46.2014 264.526 44.8994V1.61377H248.759Z" stroke="black" stroke-width="2" stroke-miterlimit="10"/>
<path d="M292.378 1.604V40.0011" stroke="black" stroke-width="2" stroke-miterlimit="10"/>
<path d="M281.678 40.4475L292.376 11.353L303.312 41.4346L281.678 40.4475Z" stroke="black" stroke-width="2" stroke-miterlimit="10"/>
<path d="M300.968 38.6152H282.752C280.214 38.6152 278.157 40.6701 278.157 43.2048C278.157 45.7396 280.214 47.7946 282.752 47.7946H300.968C303.505 47.7946 305.562 45.7396 305.562 43.2048C305.562 40.6701 303.505 38.6152 300.968 38.6152Z" fill="black" stroke="black" stroke-width="2" stroke-miterlimit="10"/>
<path d="M365.906 48.8389H341.235V51.5822H365.906V48.8389Z" stroke="black" stroke-width="2" stroke-miterlimit="10"/>
<path d="M361.378 51.582H341.235V56.1858H361.378V51.582Z" stroke="black" stroke-width="2" stroke-miterlimit="10"/>
<path d="M341.225 48.8389L324.196 13.3369H342.099L360.087 48.8389" fill="#FFC900"/>
<path d="M341.225 48.8389L324.196 13.3369H342.099L360.087 48.8389" stroke="black" stroke-width="2" stroke-linecap="round" stroke-linejoin="round"/>
<path d="M342.935 0.949219H334.629V13.8114H342.935V0.949219Z" fill="black" stroke="black" stroke-width="2" stroke-miterlimit="10"/>
<path d="M342.128 2.5249H337.866V12.473H342.128V2.5249Z" fill="white" stroke="black" stroke-width="2" stroke-miterlimit="10"/>
<path d="M181.316 250.582L174.671 254.607C173.688 254.321 172.644 254.321 171.662 254.607C167.343 248.019 159.682 236.325 158.04 233.629C156.642 231.577 155.652 229.276 155.126 226.851C154.68 225.18 148.339 197.804 148.339 197.804L147.39 267.887H138.6C137.755 266.938 136.654 267.033 135.477 268.248L135.116 251.038C135.116 251.038 133.388 199.048 133.388 192.915C133.388 192.137 133.388 191.226 133.388 190.21L141.931 189.707V182.369L147.741 181.676L147.874 178.534L149.953 178.269L149.867 181.43L155.515 180.699C154.31 184.059 153.265 186.394 153.265 186.394L155.525 187.343L153.199 190.049C155.103 191.899 157.287 193.437 159.673 194.605L162.179 190.115L162.72 190.343C162.72 190.343 167.827 212.176 168.121 213.315C168.415 214.454 171.69 227.819 171.833 228.379C171.975 228.939 178.715 244.517 181.316 250.582Z" fill="#FF90E8" stroke="black" stroke-width="2" stroke-linecap="round" stroke-linejoin="round"/>
<path d="M153.19 190.039C152.281 189.139 151.498 188.121 150.864 187.011L153.19 190.039Z" fill="#FF90E8"/>
<path d="M153.19 190.039C152.281 189.139 151.498 188.121 150.864 187.011" stroke="black" stroke-width="2" stroke-linecap="round" stroke-linejoin="round"/>
<path d="M148.32 197.776L143.83 195.127" stroke="black" stroke-width="2" stroke-linecap="round" stroke-linejoin="round"/>
<path d="M687.312 231.085V240.938C687.312 240.938 740.137 275.462 744.722 278.832C750.066 282.772 749.06 286.654 749.24 295.615L751.623 359.718" stroke="#23A094" stroke-width="2" stroke-linejoin="round"/>
</g>
<defs>
<clipPath id="clip0_271_1040">
<rect width="1441.91" height="505" fill="white"/>
</clipPath>
</defs>
</svg>
