<svg width="79" height="56" viewBox="0 0 79 56" fill="none" xmlns="http://www.w3.org/2000/svg">
<g clip-path="url(#clip0_308_1524)">
<mask id="mask0_308_1524" style="mask-type:luminance" maskUnits="userSpaceOnUse" x="0" y="0" width="79" height="56">
<path d="M0 0H79V56H0V0Z" fill="white"/>
</mask>
<g mask="url(#mask0_308_1524)">
<path d="M47.5037 1.97514C45.6668 1.20516 43.6549 0.940234 41.6793 1.20819C39.7036 1.47615 37.8371 2.26711 36.2758 3.49799C34.7144 4.72899 33.5159 6.35465 32.8064 8.20413C32.0968 10.0536 31.9023 12.0586 32.2433 14.0085L32.7878 18.381L29.1468 15.7567C27.1671 14.187 24.7074 13.334 22.1734 13.3385C19.6395 13.343 17.1828 14.2048 15.2089 15.7816C13.5022 17.1526 12.2435 18.995 11.5921 21.076C10.9406 23.157 10.9257 25.3829 11.5492 27.4723C12.1725 29.5617 13.406 31.4208 15.0938 32.8146C16.7817 34.2084 18.848 35.0743 21.0316 35.3028C22.4814 35.4547 23.9471 35.3216 25.345 34.9111C26.7429 34.5005 28.0455 33.8206 29.1785 32.9102L29.2938 32.8157C29.3735 32.7685 29.4469 32.7104 29.5206 32.6523C30.1258 32.1784 30.598 31.9691 30.8996 31.919C31.3023 32.0902 31.5802 32.2319 31.7079 32.2995L34.5188 34.1825L35.926 47.8647C36.1642 49.9486 37.223 51.8545 38.8715 53.1668C40.5057 54.4678 42.5888 55.081 44.6734 54.8748C45.6496 54.7752 46.5466 54.2969 47.1691 53.5441C47.7916 52.7914 48.0894 51.825 47.9974 50.8554L47.2258 42.6969L54.0473 47.2672C54.8581 47.8107 55.8519 48.0155 56.8137 47.8374C57.7755 47.6592 58.6279 47.1124 59.1865 46.3152C60.3761 44.6038 60.8424 42.498 60.4856 40.4493C60.1288 38.4006 58.9772 36.5723 57.2778 35.3564C57.2644 35.3459 57.2496 35.3361 57.2348 35.3259L45.8927 27.5206L45.5978 24.2288C45.5985 24.0934 45.6059 23.7801 45.6507 23.3468C45.8408 23.1102 46.2538 22.7998 46.9634 22.504C47.0508 22.4683 47.1355 22.4291 47.218 22.3868L47.3573 22.3325C48.8777 21.7192 50.2422 20.779 51.3525 19.5796C52.4628 18.3802 53.2914 16.9514 53.7785 15.3961C54.2657 13.8408 54.3994 12.1977 54.1699 10.5849C53.9404 8.97223 53.3535 7.43006 52.4514 6.06944C51.2449 4.24924 49.5218 2.82482 47.4998 1.97619L47.5037 1.97514Z" fill="#F1F333" stroke="black" stroke-miterlimit="10"/>
<path d="M26.9396 18.7898C26.1332 18.1322 25.1954 17.6518 24.1881 17.3804C23.1808 17.109 22.1269 17.0527 21.0961 17.2153C20.0652 17.3779 19.0809 17.7556 18.208 18.3235C17.3351 18.8915 16.5936 19.6367 16.0323 20.5101C15.471 21.3836 15.1029 22.3655 14.9522 23.3907C14.8016 24.4159 14.8718 25.4612 15.1584 26.4574C15.4449 27.4537 15.9412 28.3783 16.6144 29.1702C17.2877 29.962 18.1226 30.6031 19.0639 31.051C20.3225 31.65 21.7264 31.8825 23.1128 31.7214C24.4991 31.5604 25.811 31.0125 26.8962 30.1414C27.0242 30.0377 27.1489 29.9301 27.2701 29.8187L27.2722 29.8561C29.0003 28.5016 30.4583 28.2195 31.565 28.3392L34.129 23.9621L26.9403 18.7902L26.9396 18.7898ZM19.0502 27.0211C18.6623 26.5449 18.3856 25.9892 18.2401 25.3942C18.0946 24.7991 18.0838 24.1794 18.2085 23.5797C18.3332 22.98 18.5904 22.4152 18.9614 21.9259C19.3325 21.4366 19.8082 21.0351 20.3544 20.7502C20.9006 20.4653 21.5038 20.3042 22.1203 20.2784C22.7368 20.2527 23.3515 20.363 23.9199 20.6013C24.4883 20.8397 24.9964 21.2001 25.4076 21.6568C25.8188 22.1134 26.1228 22.6549 26.2977 23.2422C26.5319 24.0278 26.526 24.8648 26.2808 25.6471C26.0356 26.4294 25.5621 27.122 24.9203 27.6373C24.2784 28.1526 23.497 28.4674 22.6749 28.5419C21.8527 28.6165 21.0268 28.4474 20.3015 28.0561C19.8197 27.7962 19.3943 27.4446 19.0495 27.0215L19.0502 27.0211Z" fill="black" stroke="black" stroke-linecap="round" stroke-linejoin="round"/>
<path d="M33.9299 23.8376L55.1678 38.4655C56.0773 39.1113 56.6939 40.0865 56.8844 41.18C57.0749 42.2735 56.8239 43.3975 56.1857 44.3088L33.7253 29.2605C32.9853 28.8465 32.2076 28.5025 31.4026 28.2329L33.9299 23.8376Z" stroke="black" stroke-linecap="round" stroke-linejoin="round"/>
<path d="M35.9883 13.5583C35.7342 12.1962 35.8746 10.7904 36.3931 9.50425C36.9117 8.21808 37.7872 7.10423 38.918 6.29199C39.7638 5.68533 40.7297 5.2636 41.7518 5.05465C42.774 4.8457 43.8291 4.85428 44.8477 5.07982C45.8662 5.30535 46.825 5.74273 47.6607 6.36306C48.4964 6.98339 49.19 7.77258 49.6957 8.67852C50.2014 9.58445 50.5078 10.5865 50.5945 11.6186C50.6813 12.6507 50.5465 13.6893 50.199 14.6659C49.8515 15.6425 49.2993 16.5348 48.5787 17.284C47.8581 18.0332 46.9856 18.6221 46.0188 19.012C45.8657 19.0734 45.7104 19.1295 45.5533 19.18L45.5861 19.2007C43.5547 20.0463 42.6007 21.1757 42.1743 22.1921L37.0767 22.3006L35.9883 13.5583ZM47.061 10.689C46.7501 9.92985 46.2195 9.2791 45.5362 8.81899C44.8529 8.35889 44.0475 8.11006 43.2217 8.10394C42.1845 8.09564 41.1814 8.47082 40.4077 9.15638C39.634 9.84194 39.1451 10.7888 39.0364 11.8125C38.9277 12.8361 39.2069 13.8633 39.8195 14.6939C40.4322 15.5245 41.3345 16.099 42.3506 16.3055C43.0231 16.4432 43.7194 16.4141 44.3778 16.2209C45.0363 16.0277 45.6365 15.6762 46.1253 15.1977C46.7132 14.6223 47.1158 13.8868 47.2824 13.0843C47.4489 12.2817 47.3719 11.4481 47.061 10.689Z" fill="black" stroke="black" stroke-linecap="round" stroke-linejoin="round"/>
<path d="M42.394 29.5853L41.9362 24.5176C41.9291 23.6748 42.0019 22.8332 42.1535 22.0039L37.0552 22.0729L37.4858 26.2547M38.0691 32.2127L39.683 47.5893C39.8116 48.6918 40.373 49.6995 41.2454 50.394C42.1178 51.0884 43.2309 51.4136 44.3433 51.2989L42.856 35.5664" stroke="black" stroke-linecap="round" stroke-linejoin="round"/>
<path d="M40.9429 32.025C41.0816 31.9447 41.2028 31.8379 41.2996 31.7108C41.3964 31.5837 41.4668 31.4387 41.5067 31.2844C41.5467 31.13 41.5553 30.9694 41.5322 30.8117C41.5091 30.654 41.4547 30.5025 41.3721 30.3658C41.2895 30.2292 41.1804 30.1101 41.0512 30.0156C40.9219 29.9211 40.775 29.853 40.619 29.8153C40.463 29.7775 40.3011 29.7709 40.1425 29.7957C39.9839 29.8206 39.8318 29.8764 39.6951 29.96C39.4234 30.1262 39.2286 30.392 39.1529 30.6998C39.0773 31.0076 39.127 31.3325 39.2911 31.6042C39.4553 31.8759 39.7208 32.0724 40.03 32.1512C40.3391 32.23 40.6672 32.1846 40.9429 32.025Z" stroke="black" stroke-miterlimit="10"/>
</g>
</g>
<defs>
<clipPath id="clip0_308_1524">
<rect width="79" height="56" fill="white"/>
</clipPath>
</defs>
</svg>
