<svg width="79" height="56" viewBox="0 0 79 56" fill="none" xmlns="http://www.w3.org/2000/svg">
<g clip-path="url(#clip0_308_1484)">
<mask id="mask0_308_1484" style="mask-type:luminance" maskUnits="userSpaceOnUse" x="0" y="0" width="79" height="56">
<path d="M0 0H79V56H0V0Z" fill="white"/>
</mask>
<g mask="url(#mask0_308_1484)">
<path d="M65.7114 24.2259C65.6068 23.8095 65.4669 23.4026 65.2931 23.0096C65.4864 21.5878 65.1194 20.1467 64.2686 18.9867L65.7728 17.5531C66.6155 16.7443 67.182 15.6939 67.3926 14.5493C67.6032 13.4047 67.4474 12.2234 66.9471 11.1711C66.4467 10.1189 65.627 9.24848 64.6028 8.68212C63.5787 8.11576 62.4015 7.88184 61.2366 8.01319L59.3053 8.23824C58.6929 6.95224 57.6079 5.94751 56.2728 5.43007C54.9377 4.91263 53.4537 4.92169 52.1252 5.45539L51.4219 3.98294C50.9662 3.02806 50.2463 2.2215 49.3461 1.65736C48.446 1.09323 47.4027 0.794793 46.3381 0.796886C45.2733 0.79902 44.231 1.10177 43.3331 1.66977C42.4352 2.23778 41.7187 3.04759 41.2672 4.00464L40.6367 5.33919L39.1258 4.60909C38.3375 4.22732 37.47 4.03426 36.5929 4.0454C35.7158 4.05653 34.8536 4.27155 34.0754 4.6732C33.2972 5.07485 32.6247 5.65194 32.1118 6.35817C31.599 7.0644 31.2602 7.88009 31.1224 8.73979C30.9378 9.88999 31.1209 11.0687 31.6462 12.1103L32.0719 12.9503C31.4 13.4139 30.8381 14.0173 30.4254 14.7186C30.0127 15.4199 29.7592 16.2021 29.6825 17.0106C28.7688 17.1384 27.8919 17.4536 27.1077 17.9361C26.3235 18.4187 25.6492 19.058 25.1276 19.8134L25.0617 19.8005C21.3729 19.1716 17.5829 20.0104 14.5131 22.1353C11.4426 24.2605 9.33934 27.5004 8.65871 31.1534C7.97807 34.8064 8.77489 38.5785 10.8766 41.6527C12.9778 44.7266 16.2149 46.8549 19.8865 47.5765L20.2666 47.6503L20.553 47.706L57.9306 54.9538C59.3917 55.2369 60.9062 54.9325 62.1411 54.1074C63.376 53.2823 64.2301 52.0042 64.5155 50.5543L68.3946 30.8521C68.6376 29.6085 68.5137 28.3217 68.0377 27.1463C67.5617 25.9709 66.754 24.9568 65.7114 24.2259Z" fill="#F1F333" stroke="black" stroke-miterlimit="10"/>
<path d="M59.1563 49.5211L21.9346 42.3034M29.393 26.0119L29.9093 23.3894C29.9606 23.1294 30.1138 22.9003 30.3352 22.7524C30.5566 22.6045 30.8281 22.5498 31.0901 22.6005L62.3995 28.6716C62.5291 28.6968 62.6525 28.7471 62.7626 28.8196C62.8726 28.8921 62.9672 28.9855 63.0409 29.0943C63.1145 29.2031 63.1659 29.3253 63.1919 29.4539C63.218 29.5824 63.2182 29.7148 63.1927 29.8434L59.3136 49.5452" stroke="black" stroke-linecap="round" stroke-linejoin="round"/>
<path d="M21.2681 42.1746C25.94 43.0804 30.4674 40.0553 31.3805 35.4182C32.2932 30.7807 29.2464 26.2874 24.5745 25.3816C19.9029 24.4754 15.3755 27.5005 14.4625 32.1376C13.5494 36.7751 16.5962 41.2684 21.2681 42.1746Z" fill="black" stroke="black" stroke-linecap="round" stroke-linejoin="round"/>
<path d="M31.8456 44.219C32.9565 44.4344 34.0993 44.4305 35.2087 44.2075C36.3181 43.9845 37.3723 43.5468 38.3112 42.9194C40.2077 41.6523 41.5194 39.6894 41.9578 37.4627C42.3962 35.2359 41.9255 32.9274 40.6491 31.045C40.0172 30.1131 39.2065 29.3138 38.2633 28.6928C37.3201 28.0719 36.2628 27.6414 35.1519 27.426L24.5762 25.375" stroke="black" stroke-linecap="round" stroke-linejoin="round"/>
<path d="M17.4228 30.1338C18.1427 29.0757 19.1606 28.2514 20.3495 27.7639C21.5384 27.2763 22.8457 27.147 24.1082 27.3922M16.4561 35.1804C16.2616 34.307 16.2508 33.4031 16.4244 32.5253" stroke="white" stroke-linecap="round" stroke-linejoin="round"/>
<path d="M41.0747 24.0953L42.3891 17.4191C42.4557 17.0793 42.5891 16.7558 42.7817 16.4672C42.9743 16.1786 43.2223 15.9305 43.5116 15.7371C43.8009 15.5437 44.1258 15.4088 44.4676 15.34C44.8095 15.2713 45.1617 15.2701 45.504 15.3366L51.8018 16.5577C52.1441 16.6242 52.4698 16.757 52.7603 16.9484C53.0509 17.1398 53.3006 17.3862 53.4953 17.6734C53.6899 17.9606 53.8256 18.283 53.8947 18.6223C53.9637 18.9615 53.9648 19.311 53.8978 19.6507L48.4471 47.3357" stroke="black" stroke-linecap="round" stroke-linejoin="round"/>
<path d="M35.8045 27.6288L51.5949 30.6906L53.9441 32.9908C55.0528 33.9575 56.4 34.6151 57.8483 34.8966L61.8879 35.6799M35.5728 17.5926L40.1047 15.8923L36.9694 9.67627L43.604 12.8851L46.6525 6.42407L49.8527 13.1353L54.5342 10.6769L53.9304 14.5675L62.1926 13.604L57.0227 18.5334L60.0423 22.3375L35.5728 17.5926ZM44.0818 44.3536C44.308 44.4006 44.5413 44.4025 44.7681 44.3593C44.995 44.316 45.211 44.2285 45.4035 44.1017C45.596 43.975 45.7613 43.8115 45.8896 43.6208C46.0179 43.4302 46.1068 43.2161 46.151 42.9911C46.1953 42.766 46.194 42.5345 46.1474 42.3099C46.1007 42.0854 46.0095 41.8723 45.8791 41.683C45.7488 41.4937 45.5818 41.332 45.3879 41.2072C45.1941 41.0825 44.9772 40.9973 44.7498 40.9565C44.2987 40.8755 43.8337 40.974 43.4552 41.2307C43.0768 41.4874 42.8154 41.8816 42.7276 42.3281C42.6398 42.7746 42.7327 43.2374 42.9861 43.6165C43.2395 43.9955 43.6332 44.2603 44.0818 44.3536ZM58.9292 24.0998C59.4817 24.2078 59.9684 24.5291 60.2824 24.993C60.5964 25.4569 60.712 26.0255 60.6038 26.5739L60.292 28.1577L56.124 27.3492L56.4358 25.7658C56.544 25.2168 56.8675 24.733 57.335 24.4206C57.8026 24.1082 58.376 23.9928 58.9292 24.0998Z" stroke="black" stroke-linecap="round" stroke-linejoin="round"/>
</g>
</g>
<defs>
<clipPath id="clip0_308_1484">
<rect width="79" height="56" fill="white"/>
</clipPath>
</defs>
</svg>
