<svg width="79" height="56" viewBox="0 0 79 56" fill="none" xmlns="http://www.w3.org/2000/svg">
<g clip-path="url(#clip0_308_1496)">
<path d="M21.0141 54.7449L15.1151 50.2785C14.2045 49.5903 13.5826 48.5921 13.369 47.4761L12.0712 40.6161C11.9215 39.826 11.9827 39.0108 12.2487 38.2515C12.5148 37.4922 12.9764 36.8151 13.5877 36.2876L16.6796 33.6196L16.8069 33.51L16.6743 33.4064L16.3467 33.1513C15.8581 32.7673 15.4524 32.2896 15.154 31.7466C14.8556 31.2037 14.6704 30.6066 14.6097 29.991C14.5489 29.3755 14.6137 28.754 14.8003 28.1639C14.9869 27.5738 15.2914 27.027 15.6957 26.5562C16.2353 25.9269 16.9358 25.4535 17.7236 25.1856V25.1849L20.1521 24.3607L20.2791 24.3176L20.2403 24.1899C20.0562 23.5863 19.999 22.9517 20.0723 22.3253C20.1456 21.6989 20.3478 21.0941 20.6663 20.5485C20.9844 20.0029 21.4122 19.5281 21.9229 19.1534C22.4337 18.7787 23.0166 18.5122 23.6355 18.3705L25.766 17.8874L25.9152 17.8539L25.8673 17.71L24.6209 13.9636C24.2993 12.998 24.3087 11.9538 24.6476 10.994C24.9866 10.0343 25.636 9.21274 26.4947 8.6576C27.0643 8.28975 27.7084 8.05077 28.3815 7.9576L28.476 7.9443L28.4979 7.85225C28.9996 5.71869 30.2134 3.81611 31.9421 2.4535C33.6706 1.09118 35.8126 0.349108 38.0199 0.3479H57.0416C59.6316 0.35133 62.1145 1.37436 63.9454 3.19249C65.7762 5.01062 66.8055 7.47531 66.8072 10.0457V28.9289C66.8045 31.4996 65.7749 33.9643 63.9442 35.7829C62.1136 37.6007 59.6312 38.6236 57.0416 38.627H55.6506L55.6101 38.697C55.0701 39.6444 54.2091 40.3711 53.1802 40.7479C52.1513 41.1247 51.0211 41.1272 49.9905 40.7551L47.7058 39.9304L47.5782 39.8843L47.5291 40.0103L47.0925 41.1257C46.7886 41.9 46.2791 42.5782 45.6181 43.0884C44.9571 43.5985 44.1693 43.9216 43.3383 44.0233H43.1425L43.1164 44.128L41.7607 49.5583C41.7276 49.6846 41.6934 49.8067 41.6521 49.9268L41.6514 49.9278C41.3333 50.862 40.7215 51.6702 39.906 52.2336C39.0906 52.797 38.1144 53.0858 37.1212 53.0575C36.4625 53.0381 35.8154 52.8796 35.2231 52.5927L35.2196 52.591L35.2161 52.5896L30.9405 50.7874L30.8559 50.7518L30.7892 50.8151L27.0508 54.3907C26.1859 55.2224 25.0289 55.6876 23.8245 55.6881C22.8085 55.6893 21.8209 55.3577 21.0141 54.7449Z" fill="#90A8ED"/>
<path d="M23.8245 55.6881C25.0289 55.6876 26.1859 55.2224 27.0508 54.3907L30.7892 50.8151L30.8555 50.7518L30.9402 50.7874L35.2164 52.5896L35.2196 52.591L35.2231 52.5927C35.8154 52.8796 36.4624 53.0381 37.1212 53.0575C38.1144 53.0858 39.0905 52.797 39.906 52.2336C40.7215 51.6702 41.3333 50.862 41.6514 49.9278L41.6521 49.9268C41.6933 49.8067 41.7276 49.6849 41.7607 49.5586L43.1164 44.128L43.1425 44.0233H43.3382C44.1693 43.9216 44.9571 43.5985 45.6181 43.0884C46.2791 42.5782 46.7886 41.9 47.0925 41.1257L47.5291 40.0102L47.5781 39.8842L47.7058 39.9304L49.9905 40.755C51.0211 41.1272 52.1513 41.1247 53.1802 40.7479C54.2091 40.3711 55.0701 39.6444 55.61 38.697L55.6506 38.627H57.0416C59.6312 38.6236 62.1136 37.6007 63.9442 35.7829C65.7749 33.9643 66.8045 31.4996 66.8072 28.9289V10.0457C66.8055 7.47531 65.7762 5.01062 63.9454 3.19249C62.1145 1.37436 59.6316 0.35133 57.0416 0.3479H38.0198C35.8127 0.349187 33.6709 1.09126 31.9425 2.4535C30.2136 3.81606 28.9997 5.71864 28.4979 7.85225L28.476 7.9443L28.3818 7.9576C27.7086 8.0507 27.0646 8.2901 26.495 8.6576C25.6363 9.21269 24.9868 10.0342 24.6478 10.994C24.3088 11.9538 24.2993 12.9979 24.6209 13.9636L25.8669 17.71L25.9152 17.8539L25.766 17.8878L23.6355 18.3705C23.0165 18.5122 22.4335 18.7786 21.9227 19.1533C21.4119 19.528 20.9841 20.0029 20.6659 20.5485C20.3474 21.0941 20.1452 21.6989 20.0719 22.3253C19.9987 22.9517 20.0558 23.5863 20.2399 24.1899L20.2787 24.3176L20.1517 24.3607L17.7239 25.1849V25.1856C16.9358 25.4533 16.235 25.9268 15.6951 26.5562C15.1551 27.1857 14.7961 27.9479 14.6556 28.7626C14.5144 29.5775 14.5969 30.415 14.8945 31.1872C15.192 31.9594 15.6937 32.6379 16.3467 33.1513L16.6747 33.4068L16.8069 33.51L16.68 33.6196L13.5873 36.2876C12.9759 36.815 12.5142 37.4921 12.2482 38.2514C11.9821 39.0108 11.921 39.826 12.0708 40.6161L13.3687 47.4757C13.5823 48.5918 14.2044 49.5904 15.1151 50.2785L21.014 54.7449C21.8208 55.3577 22.8086 55.6892 23.8245 55.6881ZM23.8245 55.6881V55.8261" stroke="black" stroke-width="1.005"/>
<path d="M61.8341 10.715V29.6101C61.8347 30.2793 61.7023 30.9421 61.4445 31.5605C61.1866 32.1788 60.8083 32.7406 60.3313 33.2137C59.3681 34.1694 58.0618 34.7063 56.6998 34.7064H50.1929L50.0705 34.7663L46.8555 28.2458L54.005 27.0082L48.4566 23.5645L57.2302 12.396L42.9104 19.0271L40.7894 11.696L36.5301 17.7647L32.4944 15.419L32.5191 15.3773V10.715C32.5185 9.70698 32.8193 8.72148 33.3834 7.88328C33.9476 7.04507 34.7497 6.39188 35.6882 6.00642C36.3113 5.75007 36.9792 5.61806 37.6537 5.61792H56.7001C57.3745 5.61775 58.0424 5.74949 58.6654 6.00563C59.2885 6.26177 59.8546 6.63727 60.3313 7.11067C60.8081 7.58398 61.1862 8.14587 61.4441 8.76425C61.702 9.38262 61.8347 10.0454 61.8344 10.7146L61.8341 10.715Z" fill="black"/>
<path d="M40.1655 22.8816L41.432 31.0236L39.9557 36.9271L36.8987 49.1564L35.6738 42.3143L40.1701 22.9852H40.1454L40.1655 22.8816Z" fill="black"/>
<path d="M40.1656 22.981L35.67 42.3101L35.628 42.0794L40.1405 22.989L40.1656 22.981ZM29.2315 38.1731L30.5307 45.0257L23.4518 51.779L22.1504 44.9267L29.2315 38.1731Z" fill="black"/>
<path d="M32.519 15.3777V10.715C32.5184 9.70703 32.8192 8.72158 33.3833 7.88339C33.9474 7.0452 34.7494 6.39197 35.6879 6.00642C36.311 5.75009 36.9788 5.61808 37.6533 5.61792H56.6997C58.0618 5.61818 59.3681 6.15524 60.3313 7.11102C61.2938 8.067 61.8343 9.36321 61.834 10.7146V29.6111C61.8347 30.2803 61.7022 30.943 61.4444 31.5613C61.1865 32.1796 60.8082 32.7414 60.3313 33.2144C59.3679 34.1699 58.0617 34.7068 56.6997 34.7071H50.1928" stroke="black" stroke-linecap="round" stroke-linejoin="round"/>
<path d="M29.5182 26.6104L29.5076 26.6045L24.3066 23.5409L31.5559 21.8798L28.6569 13.1869L32.4937 15.4195L36.5319 17.7656L40.7887 11.6973L42.9118 19.0284L57.2299 12.3969L48.456 23.5654L54.0043 27.0073L46.8551 28.2474L50.0702 34.7679L51.2262 37.1136L44.5529 34.7077L42.4192 40.1446L40.1754 36.9816" stroke="black" stroke-linecap="round" stroke-linejoin="round"/>
<path d="M40.1405 22.989L29.5072 26.6042L18.8479 30.2291C18.8479 30.2291 20.9794 31.9046 23.7243 34.0116L16.238 40.4575L22.1419 44.9267M29.2314 38.1731L35.6632 42.3454L35.6696 42.3101M29.2314 38.1731L22.15 44.9267L23.4517 51.779M29.2314 38.1731L30.5307 45.0257M36.8983 49.1564L36.9628 49.1953" stroke="black" stroke-linecap="round" stroke-linejoin="round"/>
<path d="M16.2468 40.4575L17.5464 47.3095L23.4609 51.7786L30.531 45.0254C30.531 45.0254 35.4325 48.23 36.8944 49.1522M40.1404 22.989L40.1651 22.8816L41.4341 31.0236L39.9553 36.9271L36.9004 49.1564L36.8983 49.1624L36.8962 49.1522L35.6695 42.3101L35.6276 42.0794L40.1404 22.989Z" stroke="black" stroke-linecap="round" stroke-linejoin="round"/>
</g>
<defs>
<clipPath id="clip0_308_1496">
<rect width="79" height="56" fill="white"/>
</clipPath>
</defs>
</svg>
