<svg width="79" height="56" viewBox="0 0 79 56" fill="none" xmlns="http://www.w3.org/2000/svg">
<path d="M52.791 33.9762C52.5858 31.4016 51.3729 29.9568 50.3921 29.1976C48.986 28.1116 47.2889 27.8473 46.0333 27.9656H43.6605V26.2856C45.4336 25.6151 47.0337 24.5607 48.3445 23.1993C49.6553 21.8378 50.6439 20.2035 51.2382 18.4152C51.8325 16.627 52.0177 14.7297 51.7802 12.8615C51.5428 10.9933 50.8887 9.20105 49.8656 7.61524C48.4975 5.4936 46.5234 3.82471 44.1952 2.82164C43.7733 2.55714 43.2999 2.38408 42.806 2.31379C41.1811 1.82662 39.4746 1.66565 37.7863 1.8403C36.098 2.01495 34.4617 2.52171 32.9729 3.33097C31.4842 4.14024 30.1729 5.23579 29.1155 6.55364C28.0582 7.87149 27.2761 9.38521 26.8148 11.0064C26.1985 13.1734 26.1748 15.4643 26.7464 17.6434C26.7993 17.9934 26.9051 18.3333 27.0592 18.6525C27.6287 20.2454 28.5118 21.71 29.6572 22.9609C30.8026 24.2117 32.1874 25.2239 33.7309 25.9384V32.9447C32.8746 33.5721 32.1787 34.3901 31.699 35.333C31.2193 36.2759 30.9693 37.3173 30.969 38.3736V43.0825C30.9105 45.3078 31.8045 47.6468 33.3225 49.2029C33.7641 49.6584 34.2656 50.0527 34.8132 50.3754V50.7188C34.8132 51.6612 35.1904 52.5649 35.8619 53.2313C36.5334 53.8976 37.444 54.272 38.3936 54.272H38.4331L49.2653 54.1533C50.1961 54.1433 51.0865 53.7739 51.7475 53.1235C52.4086 52.4731 52.7884 51.5927 52.8065 50.6691C52.8291 49.2978 53.0534 37.2532 52.791 33.9762Z" fill="#23A094" stroke="black" stroke-miterlimit="10"/>
<path d="M39.1409 23.6705C44.2181 23.6705 48.3342 19.586 48.3342 14.5478C48.3342 9.50955 44.2181 5.42505 39.1409 5.42505C34.0634 5.42505 29.9473 9.50955 29.9473 14.5478C29.9473 19.586 34.0634 23.6705 39.1409 23.6705Z" stroke="black" stroke-linecap="round" stroke-linejoin="round"/>
<path d="M46.7346 14.573C46.7334 16.1309 46.2484 17.6505 45.3456 18.925C44.4429 20.1995 43.1662 21.1669 41.6895 21.6955C40.2129 22.2243 38.608 22.2889 37.0931 21.8803C35.5782 21.4717 34.2269 20.6099 33.2231 19.4121C33.2231 19.4121 36.3264 22.7885 41.2889 20.3595C46.4172 17.8546 46.7346 14.573 46.7346 14.573Z" fill="black" stroke="black" stroke-linecap="round" stroke-linejoin="round"/>
<path d="M30.5859 11.2066C30.5859 11.2066 34.1293 9.74499 38.2898 10.9259C43.2023 12.3189 46.3471 14.6611 47.6683 17.9416" stroke="black" stroke-linecap="round" stroke-linejoin="round"/>
<path d="M42.3314 5.93359C42.3314 5.93359 39.2486 6.24999 36.5905 11.8398C34.1666 16.9407 34.625 21.4907 34.9435 22.6513M40.0457 23.5466C40.0457 23.5466 38.5098 21.7536 38.3976 18.9056C38.2389 14.8456 39.9395 12.4166 41.7992 10.7338C44.2447 8.51904 46.4228 9.15149 46.4228 9.15149M34.6236 6.67209C34.6236 6.67209 36.1119 7.88449 34.8899 10.6796C33.6679 13.475 30.3188 17.2183 30.3188 17.2183M49.5423 11.913C49.6319 12.3655 49.6897 12.824 49.7151 13.2846M47.7341 8.30449C47.7341 8.30449 48.6218 9.05524 49.215 10.7191M29.0044 18.269C29.0044 18.269 29.3123 19.3893 29.8769 20.1534M37.3452 35.265V25.1038C37.3453 24.7388 37.4915 24.3888 37.7515 24.1308C38.0116 23.8727 38.3642 23.7277 38.732 23.7276C38.9141 23.7275 39.0945 23.763 39.2628 23.8322C39.4311 23.9013 39.584 24.0027 39.7127 24.1305C39.8415 24.2583 39.9437 24.41 40.0133 24.577C40.083 24.744 40.1188 24.923 40.1187 25.1038V31.7485" stroke="black" stroke-linecap="round" stroke-linejoin="round"/>
<path d="M39.6064 35.2652V32.9416C39.6064 32.7683 39.6408 32.5967 39.7076 32.4366C39.7744 32.2765 39.8723 32.131 39.9958 32.0084C40.1192 31.8859 40.2658 31.7887 40.4272 31.7224C40.5885 31.6561 40.7614 31.622 40.936 31.6221M44.9365 32.9409V36.7093C44.9365 37.0593 44.7964 37.3949 44.547 37.6423C44.2977 37.8898 43.9595 38.0288 43.6069 38.0288C43.429 38.0292 43.2528 37.9937 43.0891 37.9245M42.2773 35.2757V32.9416C42.2772 32.7683 42.3116 32.5967 42.3784 32.4366C42.4452 32.2765 42.5431 32.131 42.6666 32.0084C42.7901 31.8859 42.9367 31.7887 43.098 31.7224C43.2593 31.6561 43.4323 31.622 43.6069 31.6221H45.9868" stroke="black" stroke-linecap="round" stroke-linejoin="round"/>
<path d="M47.6205 34.1384V36.7144C47.6206 36.8877 47.5862 37.0593 47.5194 37.2194C47.4526 37.3795 47.3547 37.5249 47.2312 37.6474C47.1077 37.7699 46.9611 37.8671 46.7998 37.9333C46.6385 37.9996 46.4655 38.0337 46.2909 38.0336C45.9384 38.0336 45.6002 37.8946 45.3509 37.6472C45.1016 37.3998 44.9614 37.0643 44.9613 36.7144V32.946C44.9613 32.7727 44.9957 32.6011 45.0625 32.441C45.1293 32.2808 45.2272 32.1354 45.3507 32.0128C45.4741 31.8903 45.6207 31.7931 45.7821 31.7268C45.9434 31.6605 46.1163 31.6264 46.2909 31.6265M41.2656 35.4117C41.2656 35.4117 41.4363 36.223 42.1858 36.2906C42.9352 36.3578 43.2766 36.1898 43.7541 35.6816" stroke="black" stroke-linecap="round" stroke-linejoin="round"/>
<path d="M46.2914 31.6226C46.2914 31.6226 49.0042 31.1665 49.261 34.3631C49.5174 37.5593 49.261 50.7063 49.261 50.7063L38.4274 50.8246V47.8769H38.3477C35.7685 47.8769 34.5151 45.1532 34.5832 43.2429V38.4794C34.5824 38.0585 34.6653 37.6415 34.8272 37.2524C34.9892 36.8633 35.227 36.5098 35.5269 36.2122C35.8269 35.9145 36.1831 35.6786 36.5752 35.5179C36.9673 35.3573 37.3874 35.275 37.8116 35.2759H42.9438C43.2484 35.2762 43.5405 35.3965 43.7557 35.6104C43.971 35.8242 44.0919 36.1142 44.0918 36.4165C44.0917 36.6267 44.0499 36.8349 43.9688 37.029C43.8877 37.2232 43.7688 37.3996 43.619 37.5482C43.4692 37.6967 43.2913 37.8146 43.0956 37.8949C42.8998 37.9752 42.6901 38.0165 42.4783 38.0164L38.7642 38.0332C41.0316 38.7636 42.5583 41.0351 42.5583 43.3955" stroke="black" stroke-linecap="round" stroke-linejoin="round"/>
<path d="M43.5328 39.5392C43.5328 39.5392 46.0389 40.3505 46.7552 41.4163M44.9389 35.8086C44.9389 35.8086 45.6898 35.2566 46.2685 35.8086C46.9594 36.4683 46.5239 37.8893 45.3734 37.687M43.6072 31.6226H40.936" stroke="black" stroke-linecap="round" stroke-linejoin="round"/>
</svg>
