<svg width="80" height="57" viewBox="0 0 80 57" fill="none" xmlns="http://www.w3.org/2000/svg">
<path d="M67.9748 43.1891L66.0703 40.7969V39.4724C66.9316 39.0294 67.658 38.363 68.1732 37.5429C68.6882 36.7238 68.9726 35.7809 68.9965 34.8137C69.0204 33.8023 68.7587 32.8046 68.2413 31.9352C67.7234 31.0647 66.9711 30.3574 66.0703 29.8942V12.9848C66.0709 11.7875 65.6722 10.6242 64.9374 9.67884C64.2017 8.73255 63.1723 8.05759 62.0112 7.76007V7.03404C62.0112 6.99057 62.0019 6.93678 61.9966 6.89011C61.9925 6.85404 61.9878 6.81805 61.9823 6.78217C61.9766 6.74654 61.9677 6.67458 61.9588 6.62221C61.9499 6.5702 61.9588 6.56307 61.9442 6.53422C61.9335 6.47412 61.9221 6.41415 61.91 6.35431C61.91 6.32937 61.8976 6.30444 61.8922 6.27736C61.8776 6.21787 61.8651 6.15873 61.8487 6.09745L61.8274 6.02193C61.811 5.96457 61.7949 5.90508 61.775 5.84238C61.755 5.77932 61.7551 5.78289 61.7461 5.75438L61.692 5.59764L61.6489 5.49005C61.6307 5.44694 61.6147 5.40205 61.5947 5.35895C61.5751 5.31549 61.5552 5.2706 61.5352 5.22749C61.5156 5.18474 61.5046 5.15945 61.4886 5.12703C61.4722 5.09461 61.438 5.02443 61.4109 4.97384L61.3696 4.89689C61.3407 4.84248 61.31 4.78901 61.2777 4.73658L61.2399 4.67245L61.1391 4.51392C61.1245 4.49433 61.112 4.4726 61.0974 4.45122L60.993 4.30552L60.9407 4.23534L60.8398 4.10602C60.8167 4.07927 60.7944 4.0517 60.7732 4.02337L60.676 3.91364C60.6489 3.88158 60.62 3.85094 60.5912 3.81852L60.5011 3.72518L60.3984 3.62258L60.3553 3.57948L60.3101 3.53815L60.2004 3.43912L60.1067 3.35825L60.0002 3.27204L59.894 3.18939C59.8616 3.16445 59.8292 3.13915 59.795 3.11564L59.676 3.03121L59.5841 2.97029L59.4526 2.8855L59.3625 2.83349L59.2235 2.75262L59.1316 2.70595C59.0856 2.68055 59.0388 2.65655 58.9913 2.63399C58.9442 2.61262 58.9229 2.60193 58.8887 2.58554C58.8447 2.56441 58.8002 2.54457 58.7551 2.52605L58.6347 2.47617L58.5139 2.42915L58.3749 2.3807L58.267 2.34472L58.1156 2.29983L58.0166 2.27097L57.8598 2.23321L57.7608 2.2097L57.6058 2.1812L57.4975 2.16125L57.3536 2.13987L57.2292 2.12562L57.0956 2.1128C57.0508 2.1128 57.0037 2.10389 56.9589 2.10211C56.9136 2.10033 56.8758 2.10211 56.8345 2.10211H15.9249C14.492 2.1018 13.1175 2.66973 12.1027 3.68137C11.601 4.18151 11.203 4.77571 10.9313 5.42994C10.6596 6.08417 10.5197 6.78556 10.5195 7.49395V37.9626C10.5195 39.0345 10.8402 40.0819 11.4401 40.9711C12.0404 41.8611 12.8924 42.5519 13.8872 42.9554V42.9754C13.8872 44.4054 14.4568 45.7769 15.4703 46.788C16.4851 47.7997 17.8596 48.3676 19.2925 48.3672H41.6508C41.8536 49.3536 42.3288 50.2634 43.0224 50.9935C43.7417 51.7497 44.6642 52.282 45.6788 52.5265C46.6935 52.7709 47.7572 52.7171 48.742 52.3715C49.7596 52.0144 50.6472 51.3611 51.2906 50.4955L51.8652 49.7206L54.6707 53.4053C55.1752 54.0685 55.8262 54.6061 56.5729 54.9762C57.3195 55.3462 58.1416 55.5387 58.9749 55.5385C60.1555 55.5385 61.3033 55.1527 62.2435 54.4406L67.009 50.8314C67.5825 50.3983 68.0633 49.8547 68.4232 49.2326C68.7831 48.6106 69.0148 47.9228 69.1045 47.2098C69.194 46.4981 69.1401 45.7758 68.9461 45.0853C68.7521 44.3948 68.4218 43.75 67.9748 43.1891Z" fill="#23A094" stroke="black" stroke-miterlimit="10"/>
<path d="M60.6649 35.8327V42.4721L60.5477 42.5636L56.4344 37.3945C56.4298 37.3888 56.4266 37.382 56.4251 37.3749C56.4236 37.3677 56.4238 37.3603 56.4255 37.3531C56.4272 37.346 56.4308 37.3394 56.4359 37.334C56.4409 37.3286 56.4473 37.3247 56.4543 37.3225L60.6506 35.7913L60.6649 35.8327ZM60.6649 13.0177V33.2612L60.5819 33.4572L56.5605 31.771L56.6054 31.6635V13.0173L60.6649 13.0177ZM51.8509 40.8198L53.4615 42.937L53.3642 43.0107H50.1608L51.7825 40.8251C51.7867 40.8197 51.792 40.8153 51.7982 40.8123C51.8067 40.8081 51.8163 40.8066 51.8257 40.8079C51.8351 40.8093 51.8439 40.8134 51.8509 40.8198ZM45.7626 37.9844L46.4003 43.0079L46.3753 43.0114H19.2925V37.9987H45.6471L45.7626 37.9844Z" fill="black"/>
<path d="M45.6471 37.9983H15.9248V7.53003H56.6057V31.6628M16.0331 13.0177H56.5662M51.3667 13.0173V7.83391" stroke="black" stroke-linecap="round" stroke-linejoin="round"/>
<path d="M51.3664 13.0173L53.9015 10.3608L56.6057 7.53003M46.3753 43.0111H19.2925V37.9085M53.3642 43.0115H50.1608M60.6649 35.8323V42.4717" stroke="black" stroke-linecap="round" stroke-linejoin="round"/>
<path d="M51.3668 7.83398L53.9018 10.3612L56.5666 13.0178H60.6656V33.261M48.6404 28.4491L56.568 31.7708L60.5897 33.4566L63.5986 34.7148L60.6581 35.7932L56.4618 37.3244C56.4513 37.3279 56.4425 37.3352 56.4371 37.3449C56.4317 37.3546 56.4301 37.3659 56.4326 37.3767C56.4342 37.3839 56.4374 37.3906 56.4419 37.3963L60.5555 42.5655L63.7482 46.5772L58.9752 50.1846L53.4619 42.9374L51.8509 40.8202C51.8467 40.8147 51.8412 40.8104 51.8349 40.8074C51.8287 40.8042 51.8219 40.8024 51.8149 40.8024C51.808 40.8025 51.8011 40.8042 51.795 40.8074C51.7887 40.8104 51.7832 40.8147 51.7789 40.8202L50.1573 43.0058L46.9503 47.3197L46.4095 43.0058L45.7718 37.9735L44.9628 31.5837M18.8458 10.6184C19.0787 10.6184 19.2676 10.4303 19.2676 10.1981C19.2676 9.96578 19.0787 9.77768 18.8458 9.77768C18.6131 9.77768 18.4243 9.96578 18.4243 10.1981C18.4243 10.4303 18.6131 10.6184 18.8458 10.6184ZM21.673 10.6184C21.7845 10.6184 21.8914 10.5741 21.9702 10.4953C22.049 10.4165 22.0933 10.3095 22.0933 10.1981C22.0933 10.0866 22.049 9.97965 21.9702 9.90081C21.8914 9.82197 21.7845 9.77768 21.673 9.77768C21.44 9.77768 21.2512 9.96578 21.2512 10.1981C21.2512 10.4303 21.44 10.6184 21.673 10.6184ZM24.4998 10.6184C24.7328 10.6184 24.9216 10.4303 24.9216 10.1981C24.9216 9.96578 24.7328 9.77768 24.4998 9.77768C24.2672 9.77768 24.0784 9.96578 24.0784 10.1981C24.0784 10.4303 24.2672 10.6184 24.4998 10.6184Z" stroke="black" stroke-linecap="round" stroke-linejoin="round"/>
<path d="M44.9539 31.5947L44.3269 26.6414L48.6404 28.4494C51.4889 25.1605 50.723 22.5435 48.3176 21.4865C45.3557 20.1872 41.3269 22.5506 41.3269 22.5506C41.3269 22.5506 42.3935 14.8688 32.9144 17.2321C24.0206 19.4502 20.2875 26.0158 22.2511 29.5242C25.0944 34.6072 33.1524 30.1156 33.1524 30.1156C32.2728 35.7016 40.0259 34.6862 44.9539 31.5947Z" stroke="black" stroke-linecap="round" stroke-linejoin="round"/>
</svg>
