<svg width="79" height="56" viewBox="0 0 79 56" fill="none" xmlns="http://www.w3.org/2000/svg">
<path d="M58.6148 28.3873C59.1787 28.3208 59.7508 28.3738 60.2926 28.5428C60.8343 28.7118 61.3338 28.9929 61.7579 29.3677C62.1826 29.743 62.5223 30.2033 62.7547 30.7183C62.9871 31.2333 63.1069 31.7913 63.1062 32.3556V51.131C63.1062 51.6554 63.0022 52.1745 62.8 52.6589C62.5979 53.1433 62.3016 53.5835 61.928 53.9542C61.5544 54.325 61.1109 54.6191 60.6228 54.8197C60.1347 55.0203 59.6115 55.1235 59.0832 55.1235H49.6914C45.4469 55.1235 43.1516 53.2531 41.973 51.6928C41.748 51.3934 41.5436 51.0793 41.3611 50.7527L41.3286 50.6949L41.2659 50.6729C39.3445 49.9981 36.7156 48.8228 35.0781 47.0738L35.0771 47.0731L34.9582 46.9415L34.8926 46.8698L34.7967 46.8862C34.4475 46.9471 34.0949 46.9779 33.7404 46.9786C32.2155 46.9726 30.7478 46.4017 29.625 45.3777L29.5862 45.3424L29.534 45.334C28.1239 45.1083 26.8341 44.4103 25.8792 43.3561L25.8471 43.3208L25.8013 43.3061L25.5999 43.2427L25.5301 43.221L25.4655 43.2543L21.5733 45.2545V45.2549C20.8337 45.6364 19.9928 45.7807 19.167 45.6676C18.3412 45.5546 17.5711 45.1899 16.9631 44.6238C16.3555 44.0576 15.9401 43.318 15.7743 42.5074C15.6085 41.6967 15.7004 40.8549 16.0374 40.0983L18.2039 35.2358C18.3835 34.8343 18.6282 34.4647 18.9283 34.1417L21.3318 31.5681L21.4171 31.4771L21.3586 31.3672C21.1046 30.8911 20.9269 30.3787 20.832 29.8482C20.491 27.9442 21.2789 25.9811 23.2394 24.0211C23.6108 23.6526 23.9992 23.3013 24.4032 22.9683L24.4054 22.9669L24.4075 22.9648C24.4685 22.9109 24.527 22.8608 24.5873 22.8146L24.5909 22.8118C25.4712 22.1015 26.4021 21.4552 27.3763 20.8781C29.1696 19.8371 31.1377 19.1261 33.1856 18.7795L33.2449 18.7693L33.2855 18.7256L37.3035 14.4115L37.3437 14.3681L37.3497 14.3096C37.4622 13.1465 37.8581 12.0279 38.5031 11.0503C39.1482 10.0727 40.0231 9.26544 41.0525 8.69809L41.105 8.66904L41.1287 8.61444C41.7525 7.18591 42.8235 5.99482 44.1829 5.21769L44.2322 5.18969L44.2555 5.13789C44.9661 3.57182 46.2159 2.30842 47.7807 1.57456C49.3454 0.840709 51.1225 0.684466 52.7928 1.13389C54.4631 1.58384 55.917 2.61007 56.8933 4.02824C57.8696 5.44641 58.3045 7.1636 58.1197 8.87134C57.9973 10.0032 57.6067 11.0903 56.98 12.0438C56.3532 12.9972 55.5081 13.79 54.5135 14.3572L54.4641 14.3856L54.4409 14.437C54.1267 15.1286 53.7049 15.7668 53.191 16.3284L53.3215 16.446L53.1906 16.3288C52.657 16.9148 52.0297 17.4097 51.3341 17.7935L51.2819 17.8222L51.2583 17.8768C50.867 18.7747 50.2956 19.5841 49.5789 20.2556C48.8621 20.9272 48.015 21.4468 47.0893 21.7828L46.7959 21.8892L47.0396 22.0835C47.5345 22.4778 48.0017 22.9052 48.4379 23.3627C49.253 24.216 49.9128 25.0137 50.4976 25.7217C51.8021 27.3009 52.3308 27.8868 53.216 28.1381C54.1132 28.3922 55.258 28.4769 56.2734 28.4881C57.2909 28.4986 58.1937 28.436 58.6148 28.3873Z" fill="#23A094"/>
<path d="M61.7579 29.3677C61.3337 28.9931 60.8342 28.7121 60.2925 28.5431C59.7507 28.3742 59.1791 28.3212 58.6152 28.3877C58.1941 28.436 57.2909 28.499 56.2734 28.4881C55.258 28.4776 54.1132 28.3926 53.216 28.1381C52.3308 27.8872 51.8021 27.3016 50.4976 25.7224C49.9128 25.014 49.253 24.2164 48.4379 23.3631C48.0017 22.9056 47.5345 22.4782 47.0396 22.0838L46.7959 21.8896L47.0893 21.7832C48.015 21.4471 48.8621 20.9275 49.5788 20.2559C50.2956 19.5844 50.867 18.775 51.2583 17.8772L51.2819 17.8226L51.3341 17.7939C52.0297 17.41 52.657 16.9152 53.1906 16.3291L53.3215 16.4464L53.191 16.3288C53.7049 15.7672 54.1267 15.1289 54.4409 14.4374L54.4641 14.3859L54.5135 14.3579C55.5081 13.7906 56.3534 12.9979 56.9803 12.0444C57.6072 11.091 57.9978 10.0038 58.1204 8.87189C58.243 7.73994 58.094 6.59527 57.6856 5.53139C57.2772 4.46751 56.6209 3.51461 55.7705 2.75054C54.9202 1.98641 53.8999 1.43267 52.7929 1.13453C51.6858 0.836397 50.5234 0.802314 49.4006 1.03507C48.2777 1.26783 47.2262 1.76082 46.332 2.4738C45.4378 3.18678 44.7261 4.09954 44.2552 5.13754L44.2319 5.18934L44.1825 5.21734C42.823 5.99456 41.7521 7.18578 41.1283 8.61444L41.1047 8.66904L41.0521 8.69809C40.023 9.2657 39.1482 10.073 38.5032 11.0505C37.8582 12.0281 37.4622 13.1465 37.3494 14.3096L37.3434 14.3681L37.3032 14.4115L33.2851 18.7256L33.2445 18.7693L33.1853 18.7795C31.1373 19.1261 29.1693 19.8371 27.376 20.8781C26.4019 21.4552 25.4711 22.1015 24.5909 22.8118L24.587 22.8146C24.5252 22.8626 24.4652 22.9128 24.4071 22.9651L24.405 22.9669L24.4029 22.9683C23.9988 23.3013 23.6105 23.6526 23.2391 24.0211C21.2785 25.9811 20.4906 27.9439 20.8317 29.8486M61.7579 29.3677L61.875 29.2371M61.7579 29.3677C62.1826 29.743 62.5223 30.2033 62.7547 30.7183C62.9871 31.2333 63.1069 31.7913 63.1062 32.3556V51.131C63.1062 51.6554 63.0022 52.1745 62.8001 52.6589C62.5979 53.1433 62.3016 53.5835 61.928 53.9542C61.5544 54.325 61.1109 54.6191 60.6228 54.8197C60.1347 55.0203 59.6115 55.1235 59.0832 55.1235H49.6914C45.4469 55.1235 43.1516 53.2531 41.973 51.6928C41.748 51.3934 41.5436 51.0793 41.3611 50.7527L41.3286 50.6949L41.2659 50.6729C39.3445 49.9981 36.7156 48.8228 35.0781 47.0738L35.0771 47.0731L34.9582 46.9415L34.8926 46.8698L34.7967 46.8862C34.4475 46.9471 34.0948 46.9779 33.7404 46.9786C32.2155 46.9726 30.7478 46.4017 29.625 45.3777L29.5862 45.3424L29.534 45.334C28.1239 45.1083 26.8341 44.4103 25.8792 43.3561L25.8471 43.3208L25.8013 43.3061L25.5999 43.2427L25.5301 43.221L25.4655 43.2543L21.5733 45.2545V45.2549C20.8337 45.6364 19.9928 45.7807 19.167 45.6676C18.3412 45.5546 17.5711 45.1899 16.9631 44.6238C16.3555 44.0576 15.9401 43.318 15.7743 42.5074C15.6085 41.6967 15.7004 40.8549 16.0374 40.0983L18.2039 35.2358C18.3835 34.8343 18.6282 34.4647 18.9283 34.1417L21.3318 31.5681L21.4171 31.4771L21.3586 31.3672C21.1046 30.8911 20.9269 30.3787 20.832 29.8482L20.6818 29.8748M58.5947 28.2137C57.7684 28.3086 55.0133 28.4654 53.2647 27.9701C52.4433 27.737 51.9496 27.2036 50.6341 25.6111C50.0497 24.9031 49.3859 24.1012 48.5663 23.2427C48.1715 22.8285 47.7515 22.4387 47.3087 22.0754L47.211 22.1118L47.1503 21.9473L47.2607 21.8108L47.3407 21.8752C49.1711 21.1536 50.6382 19.7408 51.4202 17.9468" stroke="black"/>
<path d="M50.2088 13.8421C50.4972 13.5275 50.72 13.1592 50.8642 12.7586C51.0084 12.358 51.0712 11.9331 51.0489 11.5083C51.6918 11.4786 52.3114 11.2601 52.829 10.8805C53.3466 10.5009 53.7391 9.97734 53.9565 9.37616C54.1739 8.77498 54.2066 8.12327 54.0504 7.50364C53.8942 6.88401 53.5561 6.32437 53.0789 5.89566C52.6018 5.46696 52.0072 5.1885 51.3704 5.09559C50.7336 5.00267 50.0834 5.09949 49.5021 5.37376C48.9209 5.64804 48.4348 6.08741 48.1054 6.63619C47.7761 7.18497 47.6184 7.81844 47.6522 8.45629C46.9903 8.4848 46.3531 8.71382 45.8263 9.11254C45.2995 9.51126 44.9084 10.0605 44.7056 10.6865C44.571 11.1021 44.5231 11.5406 44.5649 11.9752C43.9097 11.9782 43.2708 12.1776 42.7319 12.5474C42.1931 12.9172 41.7794 13.44 41.5452 14.0472C41.3697 14.5011 41.2999 14.9885 41.3411 15.4729C41.3822 15.9573 41.5332 16.4263 41.7828 16.8446C42.0324 17.2629 42.3742 17.6198 42.7824 17.8885C43.1906 18.1572 43.6548 18.3308 44.1403 18.3963C44.6254 18.4622 45.1194 18.4184 45.5851 18.2682C46.0508 18.1181 46.4764 17.8654 46.8299 17.5292C47.1835 17.1929 47.4559 16.7817 47.6268 16.3262C47.7977 15.8708 47.8627 15.3829 47.8169 14.8991C48.2677 14.8976 48.7133 14.8028 49.1251 14.6208C49.537 14.4388 49.906 14.1736 50.2088 13.8421Z" fill="black" stroke="black" stroke-linecap="round" stroke-linejoin="round"/>
<path d="M39.7321 23.2271C41.9416 23.6156 43.9688 24.693 45.5192 26.3029C48.0789 28.985 49.1221 31.3237 52.1104 32.1707C55.099 33.0177 59.0832 32.5473 59.0832 32.5473V51.3272H49.6917C44.7126 51.3272 44.4273 47.6599 44.4273 47.6599C44.4273 47.6599 39.8749 46.5315 38.0237 44.5544C36.1728 42.5776 35.3211 39.8952 31.9061 38.3415C28.4908 36.7879 26.7842 35.9412 26.7842 34.9528C26.7842 32.9907 29.4871 32.1287 32.6182 33.3988C35.7493 34.6693 39.0316 36.9447 40.7284 35.7995C43.1001 34.1993 43.2479 30.7987 40.3923 28.755C38.9646 27.7313 37.263 27.6564 35.3645 27.845M43.9064 18.4265L30.5317 32.7356" stroke="black" stroke-linecap="round" stroke-linejoin="round"/>
<path d="M27.4967 36.2267L24.4982 39.4471L19.7173 41.9142L21.8841 37.0517L41.4388 16.0447M35.1311 22.7577C33.1277 22.9029 31.1838 23.4986 29.4466 24.4996C26.9271 25.9899 24.5754 28.1368 24.7987 29.3471C25.0089 30.5291 26.9825 31.1356 28.4038 30.0139M34.078 34.0392C34.5877 33.4207 35.146 32.8431 35.7476 32.312C37.834 30.6169 39.5424 30.1451 41.7244 30.24" stroke="black" stroke-linecap="round" stroke-linejoin="round"/>
<path d="M25.5023 38.3365C25.5023 38.3365 26.4045 40.4067 28.5379 39.5601C29.1945 39.3 29.9472 38.6683 30.7216 37.8731M37.3605 35.4864C39.1528 34.0329 40.6643 33.4858 42.4366 33.4127M28.3971 40.1722C28.3971 40.1722 29.2972 42.2428 31.4323 41.3958C32.1278 41.1207 32.9308 40.4274 33.7607 39.5622M31.6926 41.749C31.6926 41.749 32.5929 43.8196 34.7281 42.9726C35.2207 42.7513 35.6743 42.453 36.0718 42.0892M26.8785 34.6174C26.8785 34.6174 27.495 33.1589 29.2034 34.0059C30.3975 34.5992 30.9569 35.6061 30.8631 36.2179C30.7689 36.8297 30.2466 37.3015 29.44 37.1129M24.9331 28.828C24.9331 28.828 25.9294 29.2998 26.9258 28.358C27.9217 27.4165 27.0682 26.146 27.0682 26.146M21.9463 37.0513C21.9463 37.0513 22.0253 38.1317 22.9109 38.76C23.3944 39.1218 23.9614 39.3579 24.5603 39.4467" stroke="black" stroke-linecap="round" stroke-linejoin="round"/>
<path d="M52.3962 6.82279C52.1052 6.56125 51.7533 6.37558 51.3722 6.28247C50.991 6.18937 50.5924 6.19174 50.2124 6.28939" stroke="white" stroke-linecap="round" stroke-linejoin="round"/>
</svg>
